<svg version="1.1" xmlns="http://www.w3.org/2000/svg" xmlns:xlink="http://www.w3.org/1999/xlink" width="37.01587" height="37.01587" viewBox="0,0,37.01587,37.01587"><g transform="translate(-221.49207,-161.49208)"><g stroke="none" stroke-miterlimit="10"><path d="M221.49208,198.50795v-37.01587h37.01587v37.01587z" fill="#231734" stroke-width="0"/><g fill="#53367b" stroke-width="0.5"><g><path d="M240.32966,187.5456c0,-0.55228 0.44772,-1 1,-1c0.55228,0 1,0.44772 1,1c0,0.55228 -0.44772,1 -1,1c-0.55228,0 -1,-0.44772 -1,-1z"/><path d="M227.87169,184.46764c0,-0.55228 0.44772,-1 1,-1c0.55228,0 1,0.44772 1,1c0,0.55228 -0.44772,1 -1,1c-0.55228,0 -1,-0.44772 -1,-1z"/><path d="M223.75532,188.75244c0,-0.55228 0.44772,-1 1,-1c0.55228,0 1,0.44772 1,1c0,0.55228 -0.44772,1 -1,1c-0.55228,0 -1,-0.44772 -1,-1z"/><path d="M239.32738,182.25459c0,-0.55228 0.44772,-1 1,-1c0.55228,0 1,0.44772 1,1c0,0.55228 -0.44772,1 -1,1c-0.55228,0 -1,-0.44772 -1,-1z"/><path d="M236.98417,170.14799c0,-0.55228 0.44772,-1 1,-1c0.55228,0 1,0.44772 1,1c0,0.55228 -0.44772,1 -1,1c-0.55228,0 -1,-0.44772 -1,-1z"/><path d="M227.65773,163.2688c0,-0.55228 0.44772,-1 1,-1c0.55228,0 1,0.44772 1,1c0,0.55228 -0.44772,1 -1,1c-0.55228,0 -1,-0.44772 -1,-1z"/><path d="M239.97956,164.17282c0,-0.55228 0.44772,-1 1,-1c0.55228,0 1,0.44772 1,1c0,0.55228 -0.44772,1 -1,1c-0.55228,0 -1,-0.44772 -1,-1z"/><path d="M251.17357,163.63905c0,-0.55228 0.44772,-1 1,-1c0.55228,0 1,0.44772 1,1c0,0.55228 -0.44772,1 -1,1c-0.55228,0 -1,-0.44772 -1,-1z"/><path d="M249.53033,169.60115c0,-0.55228 0.44772,-1 1,-1c0.55228,0 1,0.44772 1,1c0,0.55228 -0.44772,1 -1,1c-0.55228,0 -1,-0.44772 -1,-1z"/><path d="M243.10255,178.17583c0,-0.55228 0.44772,-1 1,-1c0.55228,0 1,0.44772 1,1c0,0.55228 -0.44772,1 -1,1c-0.55228,0 -1,-0.44772 -1,-1z"/><path d="M255.07891,178.21907c0,-0.55228 0.44772,-1 1,-1c0.55228,0 1,0.44772 1,1c0,0.55228 -0.44772,1 -1,1c-0.55228,0 -1,-0.44772 -1,-1z"/><path d="M246.80733,188.39543c0,-0.55228 0.44772,-1 1,-1c0.55228,0 1,0.44772 1,1c0,0.55228 -0.44772,1 -1,1c-0.55228,0 -1,-0.44772 -1,-1z"/><path d="M246.87771,193.71029c0,-0.55228 0.44772,-1 1,-1c0.55228,0 1,0.44772 1,1c0,0.55228 -0.44772,1 -1,1c-0.55228,0 -1,-0.44772 -1,-1z"/><path d="M254.53879,183.87054c0,-0.55228 0.44772,-1 1,-1c0.55228,0 1,0.44772 1,1c0,0.55228 -0.44772,1 -1,1c-0.55228,0 -1,-0.44772 -1,-1z"/><path d="M233.99007,195.4026c0,-0.55228 0.44772,-1 1,-1c0.55228,0 1,0.44772 1,1c0,0.55228 -0.44772,1 -1,1c-0.55228,0 -1,-0.44772 -1,-1z"/><path d="M230.65368,180.94561c0,-0.55228 0.44772,-1 1,-1c0.55228,0 1,0.44772 1,1c0,0.55228 -0.44772,1 -1,1c-0.55228,0 -1,-0.44772 -1,-1z"/><path d="M222.9249,180.4321c0,-0.55228 0.44772,-1 1,-1c0.55228,0 1,0.44772 1,1c0,0.55228 -0.44772,1 -1,1c-0.55228,0 -1,-0.44772 -1,-1z"/><path d="M232.42793,164.6805c0,-0.55228 0.44772,-1 1,-1c0.55228,0 1,0.44772 1,1c0,0.55228 -0.44772,1 -1,1c-0.55228,0 -1,-0.44772 -1,-1z"/><path d="M227.21358,167.59348c0,-0.55228 0.44772,-1 1,-1c0.55228,0 1,0.44772 1,1c0,0.55228 -0.44772,1 -1,1c-0.55228,0 -1,-0.44772 -1,-1z"/><path d="M240.02467,191.60634c0,-0.55228 0.44772,-1 1,-1c0.55228,0 1,0.44772 1,1c0,0.55228 -0.44772,1 -1,1c-0.55228,0 -1,-0.44772 -1,-1z"/><path d="M248.23444,177.93388c0,-0.55228 0.44772,-1 1,-1c0.55228,0 1,0.44772 1,1c0,0.55228 -0.44772,1 -1,1c-0.55228,0 -1,-0.44772 -1,-1z"/><path d="M252.96098,173.41674c0,0.55228 -0.44772,1 -1,1c-0.55228,0 -1,-0.44772 -1,-1c0,-0.55228 0.44772,-1 1,-1c0.55228,0 1,0.44772 1,1z"/><path d="M256.56996,167.44153c0,0.55228 -0.44772,1 -1,1c-0.55228,0 -1,-0.44772 -1,-1c0,-0.55228 0.44772,-1 1,-1c0.55228,0 1,0.44772 1,1z"/><path d="M241.50531,175.62977c0,0.55228 -0.44772,1 -1,1c-0.55228,0 -1,-0.44772 -1,-1c0,-0.55228 0.44772,-1 1,-1c0.55228,0 1,0.44772 1,1z"/><path d="M247.99755,182.29071c0,0.55228 -0.44772,1 -1,1c-0.55228,0 -1,-0.44772 -1,-1c0,-0.55228 0.44772,-1 1,-1c0.55228,0 1,0.44772 1,1z"/><path d="M255.43439,195.02634c0,0.55228 -0.44772,1 -1,1c-0.55228,0 -1,-0.44772 -1,-1c0,-0.55228 0.44772,-1 1,-1c0.55228,0 1,0.44772 1,1z"/><path d="M230.49698,194.84077c0,0.55228 -0.44772,1 -1,1c-0.55228,0 -1,-0.44772 -1,-1c0,-0.55228 0.44772,-1 1,-1c0.55228,0 1,0.44772 1,1z"/><path d="M236.62395,188.98977c0,0.55228 -0.44772,1 -1,1c-0.55228,0 -1,-0.44772 -1,-1c0,-0.55228 0.44772,-1 1,-1c0.55228,0 1,0.44772 1,1z"/><path d="M230.75513,189.88393c0,0.55228 -0.44772,1 -1,1c-0.55228,0 -1,-0.44772 -1,-1c0,-0.55228 0.44772,-1 1,-1c0.55228,0 1,0.44772 1,1z"/><path d="M236.9448,176.87234c0,0.55228 -0.44772,1 -1,1c-0.55228,0 -1,-0.44772 -1,-1c0,-0.55228 0.44772,-1 1,-1c0.55228,0 1,0.44772 1,1z"/><path d="M227.05553,171.33387c0,0.55228 -0.44772,1 -1,1c-0.55228,0 -1,-0.44772 -1,-1c0,-0.55228 0.44772,-1 1,-1c0.55228,0 1,0.44772 1,1z"/><path d="M225.88389,164.17405c0,0.55228 -0.44772,1 -1,1c-0.55228,0 -1,-0.44772 -1,-1c0,-0.55228 0.44772,-1 1,-1c0.55228,0 1,0.44772 1,1z"/><path d="M248.27759,164.12168c0,0.55228 -0.44772,1 -1,1c-0.55228,0 -1,-0.44772 -1,-1c0,-0.55228 0.44772,-1 1,-1c0.55228,0 1,0.44772 1,1z"/><path d="M246.06154,170.0321c0,0.55228 -0.44772,1 -1,1c-0.55228,0 -1,-0.44772 -1,-1c0,-0.55228 0.44772,-1 1,-1c0.55228,0 1,0.44772 1,1z"/><path d="M254.13262,188.64759c0,0.55228 -0.44772,1 -1,1c-0.55228,0 -1,-0.44772 -1,-1c0,-0.55228 0.44772,-1 1,-1c0.55228,0 1,0.44772 1,1z"/><path d="M234.09261,169.7942c0,0.55228 -0.44772,1 -1,1c-0.55228,0 -1,-0.44772 -1,-1c0,-0.55228 0.44772,-1 1,-1c0.55228,0 1,0.44772 1,1z"/><path d="M229.82528,174.09645c0,0.55228 -0.44772,1 -1,1c-0.55228,0 -1,-0.44772 -1,-1c0,-0.55228 0.44772,-1 1,-1c0.55228,0 1,0.44772 1,1z"/></g><path d="M223.54231,195.63151c0,-0.55228 0.44772,-1 1,-1c0.55228,0 1,0.44772 1,1c0,0.55228 -0.44772,1 -1,1c-0.55228,0 -1,-0.44772 -1,-1z"/></g><path d="M234.99813,182.17795c0,-0.55229 0.44771,-1 1,-1c0.55229,0 1,0.44771 1,1c0,0.55229 -0.44771,1 -1,1c-0.55229,0 -1,-0.44771 -1,-1z" fill="#53367b" stroke-width="0.5"/><path d="M224.80194,176.83709c0,-0.55229 0.44771,-1 1,-1c0.55229,0 1,0.44771 1,1c0,0.55229 -0.44771,1 -1,1c-0.55229,0 -1,-0.44771 -1,-1z" fill="#53367b" stroke-width="0.5"/><path d="M242.76663,196.74393c0,-0.55229 0.44771,-1 1,-1c0.55229,0 1,0.44771 1,1c0,0.55229 -0.44771,1 -1,1c-0.55229,0 -1,-0.44771 -1,-1z" fill="#53367b" stroke-width="0.5"/><path d="M244.5874,173.92389c0,-0.55229 0.44771,-1 1,-1c0.55229,0 1,0.44771 1,1c0,0.55229 -0.44771,1 -1,1c-0.55229,0 -1,-0.44771 -1,-1z" fill="#53367b" stroke-width="0.5"/><path d="M231.53866,174.06584c-0.71151,-0.23717 -0.47434,-0.94868 -0.47434,-0.94868l0.10891,0.04407c-0.49347,-2.15433 -1.78315,-0.61155 -3.52771,-1.2267c-1.09016,-0.3844 -1.76329,-1.79658 -2.26813,-2.70311c-0.0474,-0.08133 -0.07993,-0.17238 -0.09388,-0.26944c-0.04058,-0.21981 -0.01474,-0.53442 0.35806,-0.75187c0.01437,-0.00859 0.02906,-0.01672 0.04404,-0.02435c0.38089,-0.19939 0.66094,-0.05401 0.82538,0.0966c0.07384,0.0627 0.13539,0.13944 0.18051,0.22609c0.22647,0.41796 0.86167,1.8356 1.46466,2.01568c2.30227,0.68756 3.65204,-0.81677 4.47229,2.2733l-0.14109,0.79407c0,0 -0.23717,0.71151 -0.94868,0.47434z" fill="#8657c7" stroke-width="0.5"/><path d="M231.09392,187.00172c0.72761,-0.1819 0.90951,0.54571 0.90951,0.54571l-0.07228,1.21223c-2.8404,2.80635 -3.41193,5.9502 -7.79926,6.58713c0,0 -0.74246,0.10607 -0.84853,-0.6364c-0.10607,-0.74246 0.6364,-0.84853 0.6364,-0.84853c3.81461,-0.53711 4.44074,-3.62778 6.95074,-6.16287l-0.32228,0.21223c0,0 -0.1819,-0.72761 0.54571,-0.90951z" fill="#8657c7" stroke-width="0.5"/><path d="M237.15083,182.10433c0.75,0 0.75,0.75 0.75,0.75l-0.00579,0.21803c-0.10663,0.85282 -0.24653,1.67291 -0.24421,2.53197c0,0 0,0.75 -0.75,0.75c-0.75,0 -0.75,-0.75 -0.75,-0.75c0.00217,-0.92315 0.14134,-1.80224 0.25579,-2.71803l-0.00579,-0.03197c0,0 0,-0.75 0.75,-0.75z" fill="#8657c7" stroke-width="0.5"/><path d="M246.22583,173.12933c0.6,0.45 0.15,1.05 0.15,1.05l-0.38935,0.51852c-0.68471,0.85565 -1.35237,1.65657 -1.96161,2.5725c0,0 -0.41603,0.62404 -1.04006,0.20801c-0.62404,-0.41603 -0.20801,-1.04006 -0.20801,-1.04006c0.63565,-0.95146 1.3266,-1.78752 2.03839,-2.6775l0.36065,-0.48148c0,0 0.45,-0.6 1.05,-0.15z" fill="#8657c7" stroke-width="0.5"/><path d="M238.77583,168.97933c0,-0.41421 0.33579,-0.75 0.75,-0.75c0.41421,0 0.75,0.33579 0.75,0.75c0,0.41421 -0.33579,0.75 -0.75,0.75c-0.41421,0 -0.75,-0.33579 -0.75,-0.75z" fill="#8657c7" stroke-width="0.5"/><path d="M242.0446,166.15203c0.02285,-0.06806 0.05765,-0.13942 0.10719,-0.21373c0.41603,-0.62404 1.04006,-0.20801 1.04006,-0.20801l0.74032,0.49355c0.20678,0.13354 0.34365,0.36603 0.34365,0.63049c0,0.41421 -0.33579,0.75 -0.75,0.75l-0.70568,0c-2.55075,0.36588 -6.38405,-1.56009 -7.34824,-3.8059c-0.04559,-0.09683 -0.07107,-0.20499 -0.07107,-0.3191c0,-0.00023 0,-0.00047 0,-0.0007c-0.00824,-0.22238 0.06202,-0.52929 0.4586,-0.69059c0.01864,-0.00787 0.03767,-0.015 0.05704,-0.02137c0.40432,-0.13877 0.65881,0.04596 0.79879,0.21877c0.06931,0.07914 0.12223,0.17299 0.1535,0.27625c0.52111,1.44761 3.31119,2.8293 5.17584,2.89035z" fill="#8657c7" stroke-width="0.5"/><path d="M241.8705,189.949c0.53033,-0.53033 1.06066,0 1.06066,0l0.43032,0.43681c0.39252,0.49065 1.10611,1.71356 1.65949,1.97821c0.24436,0.11686 1.57226,-1.35581 1.85334,-1.60996c1.56397,-1.41415 6.40698,-5.79244 7.64132,-1.89802c0,0 0.1233,0.7398 -0.6165,0.86309c-0.7398,0.1233 -0.86309,-0.6165 -0.86309,-0.6165c0.44998,-1.04189 -3.78117,1.5328 -4.05699,1.7701c-0.87434,0.7522 -2.86843,3.30654 -4.19835,2.97192c-1.02045,-0.25676 -1.94333,-1.71282 -2.59051,-2.52179l-0.31968,-0.31319c0,0 -0.53033,-0.53033 0,-1.06066z" fill="#8657c7" stroke-width="0.5"/><path d="M255.02583,196.47933c-0.75,0 -0.75,-0.75 -0.75,-0.75v-0.25c0.00563,-1.79004 -1.36915,-1.25284 -3.125,-1.25c0,0 -0.75,0 -0.75,-0.75c0,-0.75 0.75,-0.75 0.75,-0.75c2.45369,0.00356 4.6169,-0.22092 4.625,2.75v0.25c0,0 0,0.75 -0.75,0.75z" fill="#8657c7" stroke-width="0.5"/><path d="M258.15083,166.85433c0,0.75 -0.75,0.75 -0.75,0.75h-0.5c-0.53676,-0.00968 -1.09025,0.09349 -1.57956,0.31436c0,0 -0.68936,0.29544 -0.9848,-0.39392c-0.29544,-0.68936 0.39392,-0.9848 0.39392,-0.9848c0.68222,-0.28123 1.4326,-0.42582 2.17044,-0.43564h0.5c0,0 0.75,0 0.75,0.75z" fill="#8657c7" stroke-width="0.5"/><path d="M250.90083,180.22933c0,-0.41421 0.33579,-0.75 0.75,-0.75c0.41421,0 0.75,0.33579 0.75,0.75c0,0.41421 -0.33579,0.75 -0.75,0.75c-0.41421,0 -0.75,-0.33579 -0.75,-0.75z" fill="#8657c7" stroke-width="0.5"/></g></g></svg>