<svg version="1.1" xmlns="http://www.w3.org/2000/svg" xmlns:xlink="http://www.w3.org/1999/xlink" width="98.49402" height="98.49402" viewBox="0,0,98.49402,98.49402"><g transform="translate(-223.08937,-114.27919)"><g stroke-miterlimit="10"><path d="M223.08937,163.5262c0,-27.19837 22.04864,-49.24701 49.24701,-49.24701c27.19837,0 49.24701,22.04864 49.24701,49.24701c0,27.19837 -22.04864,49.24701 -49.24701,49.24701c-27.19837,0 -49.24701,-22.04864 -49.24701,-49.24701z" fill="#3f93f2" stroke="none" stroke-width="0"/><path d="M247.02277,177.01592v-28.25046h16.10977l-9.57247,14.00849l9.57247,14.24197z" fill="none" stroke="#ffffff" stroke-width="5"/><path d="M302.99267,174.28999c-2.85338,3.43983 -7.11724,5.62389 -11.88131,5.62389c-8.59097,0 -15.55533,-7.10215 -15.55533,-15.86311c0,-8.76096 6.96436,-15.86311 15.55533,-15.86311c4.80312,0 9.09779,2.21999 11.95119,5.70871" fill="none" stroke="#000000" stroke-width="5"/><g fill="none" stroke="#ffffff" stroke-width="5" font-family="&quot;Helvetica Neue&quot;, Helvetica, Arial, sans-serif" font-weight="400" font-size="16" text-anchor="start"/></g></g></svg>