<svg version="1.1" xmlns="http://www.w3.org/2000/svg" xmlns:xlink="http://www.w3.org/1999/xlink" width="38.51587" height="38.51587" viewBox="0,0,38.51587,38.51587"><g transform="translate(-220.74206,-160.74207)"><g stroke-miterlimit="10"><path d="M221.49206,198.50794v-37.01587h37.01587v37.01587z" fill="#bdc0c1" stroke="#000000" stroke-width="1.5"/><path d="M225.23252,178.6576l-2.01745,-7.80666l14.73618,8.68382z" fill="#b0b3b3" stroke="#cdd0d1" stroke-width="1"/><path d="M244.70127,192.63965l-8.02249,-0.8086l13.24663,-10.82083z" fill="#b0b3b3" stroke="#cdd0d1" stroke-width="1"/><path d="M248.03429,170.6255l-0.98881,2.15724l-1.75265,-4.71906z" fill="#b0b3b3" stroke="#cdd0d1" stroke-width="1"/><path d="M227.0409,185.71357c0,-0.55228 0.44772,-1 1,-1c0.55228,0 1,0.44772 1,1c0,0.55228 -0.44772,1 -1,1c-0.55228,0 -1,-0.44772 -1,-1z" fill="#b0b3b3" stroke="none" stroke-width="0.5"/><path d="M225.99947,192.61302c0,-0.55228 0.44772,-1 1,-1c0.55228,0 1,0.44772 1,1c0,0.55228 -0.44772,1 -1,1c-0.55228,0 -1,-0.44772 -1,-1z" fill="#b0b3b3" stroke="none" stroke-width="0.5"/><path d="M238.49659,183.50053c0,-0.55228 0.44772,-1 1,-1c0.55228,0 1,0.44772 1,1c0,0.55228 -0.44772,1 -1,1c-0.55228,0 -1,-0.44772 -1,-1z" fill="#b0b3b3" stroke="none" stroke-width="0.5"/><path d="M236.15338,171.39395c0,-0.55228 0.44772,-1 1,-1c0.55228,0 1,0.44772 1,1c0,0.55228 -0.44772,1 -1,1c-0.55228,0 -1,-0.44772 -1,-1z" fill="#b0b3b3" stroke="none" stroke-width="0.5"/><path d="M224.56751,164.10397c0,-0.55228 0.44772,-1 1,-1c0.55228,0 1,0.44772 1,1c0,0.55228 -0.44772,1 -1,1c-0.55228,0 -1,-0.44772 -1,-1z" fill="#b0b3b3" stroke="none" stroke-width="0.5"/><path d="M241.10015,164.4945c0,-0.55228 0.44772,-1 1,-1c0.55228,0 1,0.44772 1,1c0,0.55228 -0.44772,1 -1,1c-0.55228,0 -1,-0.44772 -1,-1z" fill="#b0b3b3" stroke="none" stroke-width="0.5"/><path d="M250.34282,164.88503c0,-0.55228 0.44772,-1 1,-1c0.55228,0 1,0.44772 1,1c0,0.55228 -0.44772,1 -1,1c-0.55228,0 -1,-0.44772 -1,-1z" fill="#b0b3b3" stroke="none" stroke-width="0.5"/><path d="M250.34282,172.69573c0,-0.55228 0.44772,-1 1,-1c0.55228,0 1,0.44772 1,1c0,0.55228 -0.44772,1 -1,1c-0.55228,0 -1,-0.44772 -1,-1z" fill="#b0b3b3" stroke="none" stroke-width="0.5"/><path d="M242.27176,176.34073c0,-0.55228 0.44772,-1 1,-1c0.55228,0 1,0.44772 1,1c0,0.55228 -0.44772,1 -1,1c-0.55228,0 -1,-0.44772 -1,-1z" fill="#b0b3b3" stroke="none" stroke-width="0.5"/><path d="M254.24816,179.46501c0,-0.55228 0.44772,-1 1,-1c0.55228,0 1,0.44772 1,1c0,0.55228 -0.44772,1 -1,1c-0.55228,0 -1,-0.44772 -1,-1z" fill="#b0b3b3" stroke="none" stroke-width="0.5"/><path d="M252.94638,187.79642c0,-0.55228 0.44772,-1 1,-1c0.55228,0 1,0.44772 1,1c0,0.55228 -0.44772,1 -1,1c-0.55228,0 -1,-0.44772 -1,-1z" fill="#b0b3b3" stroke="none" stroke-width="0.5"/><path d="M246.04693,194.95623c0,-0.55228 0.44772,-1 1,-1c0.55228,0 1,0.44772 1,1c0,0.55228 -0.44772,1 -1,1c-0.55228,0 -1,-0.44772 -1,-1z" fill="#b0b3b3" stroke="none" stroke-width="0.5"/><path d="M254.11799,194.95623c0,-0.55228 0.44772,-1 1,-1c0.55228,0 1,0.44772 1,1c0,0.55228 -0.44772,1 -1,1c-0.55228,0 -1,-0.44772 -1,-1z" fill="#b0b3b3" stroke="none" stroke-width="0.5"/><path d="M233.15928,196.64854c0,-0.55228 0.44772,-1 1,-1c0.55228,0 1,0.44772 1,1c0,0.55228 -0.44772,1 -1,1c-0.55228,0 -1,-0.44772 -1,-1z" fill="#b0b3b3" stroke="none" stroke-width="0.5"/><path d="M233.94035,189.0982c0,-0.55228 0.44772,-1 1,-1c0.55228,0 1,0.44772 1,1c0,0.55228 -0.44772,1 -1,1c-0.55228,0 -1,-0.44772 -1,-1z" fill="#b0b3b3" stroke="none" stroke-width="0.5"/><path d="M222.09412,181.67804c0,-0.55228 0.44772,-1 1,-1c0.55228,0 1,0.44772 1,1c0,0.55228 -0.44772,1 -1,1c-0.55228,0 -1,-0.44772 -1,-1z" fill="#b0b3b3" stroke="none" stroke-width="0.5"/><path d="M231.59714,165.92646c0,-0.55228 0.44772,-1 1,-1c0.55228,0 1,0.44772 1,1c0,0.55228 -0.44772,1 -1,1c-0.55228,0 -1,-0.44772 -1,-1z" fill="#b0b3b3" stroke="none" stroke-width="0.5"/><path d="M225.86929,170.4827c0,-0.55228 0.44772,-1 1,-1c0.55228,0 1,0.44772 1,1c0,0.55228 -0.44772,1 -1,1c-0.55228,0 -1,-0.44772 -1,-1z" fill="#b0b3b3" stroke="none" stroke-width="0.5"/></g></g></svg>