<svg version="1.1" xmlns="http://www.w3.org/2000/svg" xmlns:xlink="http://www.w3.org/1999/xlink" width="37.01587" height="37.01587" viewBox="0,0,37.01587,37.01587"><g transform="translate(-221.49206,-161.49207)"><g stroke-miterlimit="10"><path d="M221.49207,198.50795v-37.01587h37.01587v37.01587z" fill="#bdc0c1" stroke="none" stroke-width="0"/><path d="M225.23253,178.65761l-2.01745,-7.80666l14.73618,8.68382z" fill="#00c6cd" stroke="#cdd0d1" stroke-width="1"/><path d="M244.70128,192.63966l-8.02249,-0.8086l13.24663,-10.82083z" fill="#00c6cd" stroke="#cdd0d1" stroke-width="1"/><path d="M248.0343,170.62551l-0.98881,2.15724l-1.75265,-4.71906z" fill="#00c6cd" stroke="#cdd0d1" stroke-width="1"/><path d="M227.04091,185.71358c0,-0.55228 0.44772,-1 1,-1c0.55228,0 1,0.44772 1,1c0,0.55228 -0.44772,1 -1,1c-0.55228,0 -1,-0.44772 -1,-1z" fill="#b0b3b3" stroke="none" stroke-width="0.5"/><path d="M225.99948,192.61303c0,-0.55228 0.44772,-1 1,-1c0.55228,0 1,0.44772 1,1c0,0.55228 -0.44772,1 -1,1c-0.55228,0 -1,-0.44772 -1,-1z" fill="#b0b3b3" stroke="none" stroke-width="0.5"/><path d="M238.4966,183.50054c0,-0.55228 0.44772,-1 1,-1c0.55228,0 1,0.44772 1,1c0,0.55228 -0.44772,1 -1,1c-0.55228,0 -1,-0.44772 -1,-1z" fill="#b0b3b3" stroke="none" stroke-width="0.5"/><path d="M236.15339,171.39396c0,-0.55228 0.44772,-1 1,-1c0.55228,0 1,0.44772 1,1c0,0.55228 -0.44772,1 -1,1c-0.55228,0 -1,-0.44772 -1,-1z" fill="#b0b3b3" stroke="none" stroke-width="0.5"/><path d="M224.56752,164.10398c0,-0.55228 0.44772,-1 1,-1c0.55228,0 1,0.44772 1,1c0,0.55228 -0.44772,1 -1,1c-0.55228,0 -1,-0.44772 -1,-1z" fill="#b0b3b3" stroke="none" stroke-width="0.5"/><path d="M241.10016,164.49451c0,-0.55228 0.44772,-1 1,-1c0.55228,0 1,0.44772 1,1c0,0.55228 -0.44772,1 -1,1c-0.55228,0 -1,-0.44772 -1,-1z" fill="#b0b3b3" stroke="none" stroke-width="0.5"/><path d="M250.34283,164.88503c0,-0.55228 0.44772,-1 1,-1c0.55228,0 1,0.44772 1,1c0,0.55228 -0.44772,1 -1,1c-0.55228,0 -1,-0.44772 -1,-1z" fill="#b0b3b3" stroke="none" stroke-width="0.5"/><path d="M250.34283,172.69574c0,-0.55228 0.44772,-1 1,-1c0.55228,0 1,0.44772 1,1c0,0.55228 -0.44772,1 -1,1c-0.55228,0 -1,-0.44772 -1,-1z" fill="#b0b3b3" stroke="none" stroke-width="0.5"/><path d="M242.27177,176.34074c0,-0.55228 0.44772,-1 1,-1c0.55228,0 1,0.44772 1,1c0,0.55228 -0.44772,1 -1,1c-0.55228,0 -1,-0.44772 -1,-1z" fill="#b0b3b3" stroke="none" stroke-width="0.5"/><path d="M254.24817,179.46502c0,-0.55228 0.44772,-1 1,-1c0.55228,0 1,0.44772 1,1c0,0.55228 -0.44772,1 -1,1c-0.55228,0 -1,-0.44772 -1,-1z" fill="#b0b3b3" stroke="none" stroke-width="0.5"/><path d="M252.94639,187.79643c0,-0.55228 0.44772,-1 1,-1c0.55228,0 1,0.44772 1,1c0,0.55228 -0.44772,1 -1,1c-0.55228,0 -1,-0.44772 -1,-1z" fill="#b0b3b3" stroke="none" stroke-width="0.5"/><path d="M246.04694,194.95624c0,-0.55228 0.44772,-1 1,-1c0.55228,0 1,0.44772 1,1c0,0.55228 -0.44772,1 -1,1c-0.55228,0 -1,-0.44772 -1,-1z" fill="#b0b3b3" stroke="none" stroke-width="0.5"/><path d="M254.118,194.95624c0,-0.55228 0.44772,-1 1,-1c0.55228,0 1,0.44772 1,1c0,0.55228 -0.44772,1 -1,1c-0.55228,0 -1,-0.44772 -1,-1z" fill="#b0b3b3" stroke="none" stroke-width="0.5"/><path d="M233.15929,196.64855c0,-0.55228 0.44772,-1 1,-1c0.55228,0 1,0.44772 1,1c0,0.55228 -0.44772,1 -1,1c-0.55228,0 -1,-0.44772 -1,-1z" fill="#b0b3b3" stroke="none" stroke-width="0.5"/><path d="M233.94036,189.09821c0,-0.55228 0.44772,-1 1,-1c0.55228,0 1,0.44772 1,1c0,0.55228 -0.44772,1 -1,1c-0.55228,0 -1,-0.44772 -1,-1z" fill="#b0b3b3" stroke="none" stroke-width="0.5"/><path d="M222.09413,181.67805c0,-0.55228 0.44772,-1 1,-1c0.55228,0 1,0.44772 1,1c0,0.55228 -0.44772,1 -1,1c-0.55228,0 -1,-0.44772 -1,-1z" fill="#b0b3b3" stroke="none" stroke-width="0.5"/><path d="M231.59715,165.92647c0,-0.55228 0.44772,-1 1,-1c0.55228,0 1,0.44772 1,1c0,0.55228 -0.44772,1 -1,1c-0.55228,0 -1,-0.44772 -1,-1z" fill="#b0b3b3" stroke="none" stroke-width="0.5"/><path d="M225.8693,170.48271c0,-0.55228 0.44772,-1 1,-1c0.55228,0 1,0.44772 1,1c0,0.55228 -0.44772,1 -1,1c-0.55228,0 -1,-0.44772 -1,-1z" fill="#b0b3b3" stroke="none" stroke-width="0.5"/></g></g></svg>