<svg version="1.1" xmlns="http://www.w3.org/2000/svg" xmlns:xlink="http://www.w3.org/1999/xlink" width="65.32481" height="40.01511" viewBox="0,0,65.32481,40.01511"><g transform="translate(-200.64884,-153.32115)"><g stroke-miterlimit="10"><path d="M233.06784,166.58255c0,-3.90938 3.16918,-5.13772 7.07856,-5.13772c3.90938,0 7.07856,1.22834 7.07856,5.13772c0,3.90938 -3.16917,11.70672 -7.07856,11.70672c-3.90938,0 -7.07856,-7.79734 -7.07856,-11.70672z" fill="#d14242" stroke="#20c500" stroke-width="0" stroke-linecap="butt"/><path d="M255.82504,174.80985c-0.06737,2.78001 -3.01989,2.91761 -4.6875,1.25c-2.72645,-2.72645 -0.89361,-7.47627 -0.41495,-11.52784c-0.94979,0.46 -1.91532,0.89117 -2.90704,1.27136c-0.80879,0.31006 -4.26574,2.0227 -5.01566,0.71033l-0.48286,-0.845c-0.44009,0.71429 -1.22943,1.19046 -2.12999,1.19046c-0.29634,0 -0.58064,-0.05156 -0.84442,-0.1462c-3.42454,1.01007 -8.55121,0.45231 -13.23208,-0.29219c-0.01776,2.41985 -1.25707,5.23094 -1.33896,7.85304c-0.05423,1.73658 0.92205,6.17124 -2.5,6.17124c-5.05804,0 -1.58508,-9.80093 -1.41662,-12.50676c0.02501,-0.40172 0.01733,-1.42141 0.07925,-2.39706c-1.18593,-0.20111 -2.25855,-0.37098 -3.16187,-0.47361c-3.0925,-0.35136 2.0979,10.30139 -3.26413,10.30139c-4.12936,0 -2.36052,-12.79676 -2.3507,-13.09998c0.0139,-0.42927 0.09941,-0.8771 0.3125,-1.25c1.08639,-1.90118 3.89702,-1.02791 5.63884,-0.9097c4.27471,0.29012 8.57672,1.66272 12.81912,1.74984c3.51045,0.07209 8.78586,-2.7031 10.52789,0.34546c0.40432,0.23862 0.73561,0.58781 0.95229,1.00597c0.45762,-0.5038 0.99294,-0.94904 1.58534,-1.35032c3.27332,-2.21726 8.28939,-3.09201 11.56956,-5.08319c1.10703,-0.67201 3.70003,-2.71006 5.02181,-3.11526c1.56371,-0.47936 4.0107,-0.67206 4.93045,0.9375c1.35002,2.36254 -0.70995,4.89443 -0.73257,7.25019c-0.03861,4.02133 0.09436,8.04414 0,12.06456c-0.0309,1.31651 -0.88852,2.5 -2.5,2.5c-1.61068,0 -2.46951,-1.18349 -2.5,-2.5c-0.09449,-4.07965 -0.01434,-8.16151 0,-12.24223c0.00219,-0.62227 0.80334,-2.09618 0.23077,-1.85249c-1.51899,0.6465 -2.99082,1.40409 -4.45687,2.18513c0.13837,0.22082 0.22444,0.50767 0.25609,0.91088c0.00813,0.08205 0.01229,0.16526 0.01229,0.24944c0.08915,3.88066 0.09404,7.7645 0,11.64504z" fill="#d14242" stroke="none" stroke-width="0.5" stroke-linecap="butt"/><path d="M242.67558,176.54376l8.92922,1.69189l1.05797,6.08152" fill="none" stroke="#d14242" stroke-width="2.5" stroke-linecap="round"/><path d="M242.23916,186.49292c0.1032,0.57881 1.24393,-0.00941 1.73591,0.3125c1.86394,1.21961 3.36055,0.27953 4.84867,2.94352c0.80228,1.43621 -2.24603,3.4801 -3.26205,3.53553c-3.4655,0.18904 -8.47893,0.10118 -8.47182,-4.60396c0.00518,-3.42918 -0.08808,-6.85951 0,-10.28756c0.00077,-0.02981 0.00127,-0.06044 0.00165,-0.09169c0.04825,-1.33824 1.14833,-2.40831 2.49835,-2.40831c1.38071,0 2.5,1.11929 2.5,2.5c0,0.14926 -0.01308,0.29546 -0.03816,0.43752c0.56942,2.14169 -0.33385,4.73859 0.18745,7.66246z" fill="#d14242" stroke="none" stroke-width="0.5" stroke-linecap="butt"/><path d="M236.22745,184.53516c-0.41707,0.72893 -0.97217,1.56001 -1.78252,1.78053c-0.29074,0.07912 -3.38666,-1.07475 -5.25352,-2.01486c-0.42755,-0.11436 -0.8188,-0.34078 -1.13102,-0.6548c-0.83674,2.57293 -2.05401,4.92533 -3.74921,4.8302c-3.28603,-0.1844 -2.2117,-4.61154 -1.03113,-8.02011c-5.41139,-2.27689 -10.13491,-5.86727 -15.45447,-8.41279c-2.15565,-1.03152 -8.40965,-2.83298 -6.96148,-6.17365c1.48416,-3.42369 5.5856,-0.04277 7.23632,0.82039c5.08882,2.66097 9.99428,5.85515 15.12134,8.39988c0.2909,0.14439 0.89267,0.34142 1.60586,0.57613c0.29066,-1.24714 0.83092,-2.97274 1.70228,-2.97225c0.17968,-0.10247 0.37508,-0.18414 0.58392,-0.24097c1.33226,-0.36255 2.70618,0.42357 3.06872,1.75583c0.60572,0.45691 -0.59531,2.9713 -0.70399,3.51451c-0.02912,0.14554 -0.06334,0.32312 -0.1029,0.52755c0.07238,0.14513 0.13163,0.29947 0.17585,0.46195c0.06003,0.2206 0.08857,0.44234 0.08835,0.66045c1.85255,-0.12106 8.19262,2.35686 6.5876,5.16202z" fill="#20c500" stroke="none" stroke-width="0.5" stroke-linecap="butt"/><path d="M228.43288,184.12301l1.63801,-5.95156l9.05054,-0.82521" fill="none" stroke="#d14242" stroke-width="2.5" stroke-linecap="round"/><path d="M232.90958,168.39015c0,-1.38071 1.11929,-2.5 2.5,-2.5c1.38071,0 2.5,1.11929 2.5,2.5c0,1.38071 -1.11929,2.5 -2.5,2.5c-1.38071,0 -2.5,-1.11929 -2.5,-2.5z" fill="#000000" stroke="none" stroke-width="0.5" stroke-linecap="butt"/><path d="M239.92647,168.24085c0,-1.38071 1.11929,-2.5 2.5,-2.5c1.38071,0 2.5,1.11929 2.5,2.5c0,1.38071 -1.11929,2.5 -2.5,2.5c-1.38071,0 -2.5,-1.11929 -2.5,-2.5z" fill="#000000" stroke="none" stroke-width="0.5" stroke-linecap="butt"/><path d="M245.54978,172.28372c0.88388,0.88388 0,1.76777 0,1.76777l-0.43247,0.41471c-0.71184,0.37702 -1.33009,1.11884 -2.13551,1.13107c-0.47401,0.0072 -0.48832,-0.88834 -0.91981,-1.08469c-0.78632,-0.3578 -1.63408,0.95404 -2.47671,0.76348c-0.76379,-0.17273 -0.96619,-1.92069 -1.69286,-1.62885c-0.29984,0.12042 -0.68301,1.62771 -0.63565,2.05843c0,0 0,1.25 -1.25,1.25c-1.25,0 -1.25,-1.25 -1.25,-1.25c0.06583,-1.2606 0.87874,-4.26805 2.64885,-4.51057c1.07028,-0.14664 1.75543,1.33175 2.786,1.65564c0.85852,0.26982 1.7214,-0.92715 2.59934,-0.72948c0.37636,0.08474 0.21714,0.85683 0.57314,1.00545c0.21758,0.09083 0.16881,-0.44032 0.25321,-0.66047l0.16471,-0.18247c0,0 0.88388,-0.88388 1.76777,0z" fill="#000000" stroke="none" stroke-width="0.5" stroke-linecap="butt"/></g></g></svg>