<svg version="1.1" xmlns="http://www.w3.org/2000/svg" xmlns:xlink="http://www.w3.org/1999/xlink" width="37.01587" height="37.01587" viewBox="0,0,37.01587,37.01587"><defs><radialGradient cx="240.00001" cy="180.00002" r="18.50794" gradientUnits="userSpaceOnUse" id="color-1"><stop offset="0" stop-color="#b04fc3"/><stop offset="1" stop-color="#aa4dbd" stop-opacity="0.10588"/></radialGradient></defs><g transform="translate(-221.49207,-161.49208)"><g stroke="none" stroke-miterlimit="10"><path d="M221.49208,198.50795v-37.01587h37.01587v37.01587z" fill="url(#color-1)" stroke-width="0"/><path d="M225.77584,168.79184c0,-1.38071 1.11929,-2.5 2.5,-2.5c1.38071,0 2.5,1.11929 2.5,2.5c0,1.38071 -1.11929,2.5 -2.5,2.5c-1.38071,0 -2.5,-1.11929 -2.5,-2.5z" fill-opacity="0.74902" fill="#c883d6" stroke-width="0.5"/><path d="M250.77584,178.29184c0,-1.38071 1.11929,-2.5 2.5,-2.5c1.38071,0 2.5,1.11929 2.5,2.5c0,1.38071 -1.11929,2.5 -2.5,2.5c-1.38071,0 -2.5,-1.11929 -2.5,-2.5z" fill-opacity="0.74902" fill="#c883d6" stroke-width="0.5"/><path d="M238.40084,193.79184c0,-1.38071 1.11929,-2.5 2.5,-2.5c1.38071,0 2.5,1.11929 2.5,2.5c0,1.38071 -1.11929,2.5 -2.5,2.5c-1.38071,0 -2.5,-1.11929 -2.5,-2.5z" fill-opacity="0.74902" fill="#c883d6" stroke-width="0.5"/></g></g></svg>