<svg version="1.1" xmlns="http://www.w3.org/2000/svg" xmlns:xlink="http://www.w3.org/1999/xlink" width="38.51587" height="38.51587" viewBox="0,0,38.51587,38.51587"><g transform="translate(-220.74207,-160.74208)"><g stroke-miterlimit="10"><path d="M221.49208,198.50795v-37.01587h37.01587v37.01587z" fill="#6c6f70" stroke="#000000" stroke-width="1.5"/><path d="M227.04097,185.71362c0,-0.55228 0.44772,-1 1,-1c0.55228,0 1,0.44772 1,1c0,0.55228 -0.44772,1 -1,1c-0.55228,0 -1,-0.44772 -1,-1z" fill="#b0b3b3" stroke="none" stroke-width="0.5"/><path d="M225.99952,192.61306c0,-0.55228 0.44772,-1 1,-1c0.55228,0 1,0.44772 1,1c0,0.55228 -0.44772,1 -1,1c-0.55228,0 -1,-0.44772 -1,-1z" fill="#b0b3b3" stroke="none" stroke-width="0.5"/><path d="M238.49665,183.50059c0,-0.55228 0.44772,-1 1,-1c0.55228,0 1,0.44772 1,1c0,0.55228 -0.44772,1 -1,1c-0.55228,0 -1,-0.44772 -1,-1z" fill="#b0b3b3" stroke="none" stroke-width="0.5"/><path d="M236.15344,171.39398c0,-0.55228 0.44772,-1 1,-1c0.55228,0 1,0.44772 1,1c0,0.55228 -0.44772,1 -1,1c-0.55228,0 -1,-0.44772 -1,-1z" fill="#b0b3b3" stroke="none" stroke-width="0.5"/><path d="M224.56757,164.10402c0,-0.55228 0.44772,-1 1,-1c0.55228,0 1,0.44772 1,1c0,0.55228 -0.44772,1 -1,1c-0.55228,0 -1,-0.44772 -1,-1z" fill="#b0b3b3" stroke="none" stroke-width="0.5"/><path d="M241.10017,164.49452c0,-0.55228 0.44772,-1 1,-1c0.55228,0 1,0.44772 1,1c0,0.55228 -0.44772,1 -1,1c-0.55228,0 -1,-0.44772 -1,-1z" fill="#b0b3b3" stroke="none" stroke-width="0.5"/><path d="M250.34285,164.88503c0,-0.55228 0.44772,-1 1,-1c0.55228,0 1,0.44772 1,1c0,0.55228 -0.44772,1 -1,1c-0.55228,0 -1,-0.44772 -1,-1z" fill="#b0b3b3" stroke="none" stroke-width="0.5"/><path d="M250.34285,172.69579c0,-0.55228 0.44772,-1 1,-1c0.55228,0 1,0.44772 1,1c0,0.55228 -0.44772,1 -1,1c-0.55228,0 -1,-0.44772 -1,-1z" fill="#b0b3b3" stroke="none" stroke-width="0.5"/><path d="M242.27182,176.34077c0,-0.55228 0.44772,-1 1,-1c0.55228,0 1,0.44772 1,1c0,0.55228 -0.44772,1 -1,1c-0.55228,0 -1,-0.44772 -1,-1z" fill="#b0b3b3" stroke="none" stroke-width="0.5"/><path d="M254.24818,179.46505c0,-0.55228 0.44772,-1 1,-1c0.55228,0 1,0.44772 1,1c0,0.55228 -0.44772,1 -1,1c-0.55228,0 -1,-0.44772 -1,-1z" fill="#b0b3b3" stroke="none" stroke-width="0.5"/><path d="M252.94642,187.79644c0,-0.55228 0.44772,-1 1,-1c0.55228,0 1,0.44772 1,1c0,0.55228 -0.44772,1 -1,1c-0.55228,0 -1,-0.44772 -1,-1z" fill="#b0b3b3" stroke="none" stroke-width="0.5"/><path d="M246.04698,194.95627c0,-0.55228 0.44772,-1 1,-1c0.55228,0 1,0.44772 1,1c0,0.55228 -0.44772,1 -1,1c-0.55228,0 -1,-0.44772 -1,-1z" fill="#b0b3b3" stroke="none" stroke-width="0.5"/><path d="M254.11806,194.95627c0,-0.55228 0.44772,-1 1,-1c0.55228,0 1,0.44772 1,1c0,0.55228 -0.44772,1 -1,1c-0.55228,0 -1,-0.44772 -1,-1z" fill="#b0b3b3" stroke="none" stroke-width="0.5"/><path d="M233.15934,196.6486c0,-0.55228 0.44772,-1 1,-1c0.55228,0 1,0.44772 1,1c0,0.55228 -0.44772,1 -1,1c-0.55228,0 -1,-0.44772 -1,-1z" fill="#b0b3b3" stroke="none" stroke-width="0.5"/><path d="M233.94042,189.09827c0,-0.55228 0.44772,-1 1,-1c0.55228,0 1,0.44772 1,1c0,0.55228 -0.44772,1 -1,1c-0.55228,0 -1,-0.44772 -1,-1z" fill="#b0b3b3" stroke="none" stroke-width="0.5"/><path d="M222.09417,181.67807c0,-0.55228 0.44772,-1 1,-1c0.55228,0 1,0.44772 1,1c0,0.55228 -0.44772,1 -1,1c-0.55228,0 -1,-0.44772 -1,-1z" fill="#b0b3b3" stroke="none" stroke-width="0.5"/><path d="M231.5972,165.92648c0,-0.55228 0.44772,-1 1,-1c0.55228,0 1,0.44772 1,1c0,0.55228 -0.44772,1 -1,1c-0.55228,0 -1,-0.44772 -1,-1z" fill="#b0b3b3" stroke="none" stroke-width="0.5"/><path d="M225.86933,170.48277c0,-0.55228 0.44772,-1 1,-1c0.55228,0 1,0.44772 1,1c0,0.55228 -0.44772,1 -1,1c-0.55228,0 -1,-0.44772 -1,-1z" fill="#b0b3b3" stroke="none" stroke-width="0.5"/></g></g></svg>