<svg version="1.1" xmlns="http://www.w3.org/2000/svg" xmlns:xlink="http://www.w3.org/1999/xlink" width="37.01587" height="37.01587" viewBox="0,0,37.01587,37.01587"><g transform="translate(-221.49206,-161.49207)"><g stroke="none" stroke-miterlimit="10"><path d="M221.49207,198.50795v-37.01587h37.01587v37.01587z" fill="#6c6f70" stroke-width="0"/><path d="M227.04096,185.71362c0,-0.55228 0.44772,-1 1,-1c0.55228,0 1,0.44772 1,1c0,0.55228 -0.44772,1 -1,1c-0.55228,0 -1,-0.44772 -1,-1z" fill="#b0b3b3" stroke-width="0.5"/><path d="M225.99952,192.61306c0,-0.55228 0.44772,-1 1,-1c0.55228,0 1,0.44772 1,1c0,0.55228 -0.44772,1 -1,1c-0.55228,0 -1,-0.44772 -1,-1z" fill="#b0b3b3" stroke-width="0.5"/><path d="M238.49665,183.50059c0,-0.55228 0.44772,-1 1,-1c0.55228,0 1,0.44772 1,1c0,0.55228 -0.44772,1 -1,1c-0.55228,0 -1,-0.44772 -1,-1z" fill="#b0b3b3" stroke-width="0.5"/><path d="M236.15344,171.39397c0,-0.55228 0.44772,-1 1,-1c0.55228,0 1,0.44772 1,1c0,0.55228 -0.44772,1 -1,1c-0.55228,0 -1,-0.44772 -1,-1z" fill="#b0b3b3" stroke-width="0.5"/><path d="M224.56757,164.10402c0,-0.55228 0.44772,-1 1,-1c0.55228,0 1,0.44772 1,1c0,0.55228 -0.44772,1 -1,1c-0.55228,0 -1,-0.44772 -1,-1z" fill="#b0b3b3" stroke-width="0.5"/><path d="M241.10017,164.49452c0,-0.55228 0.44772,-1 1,-1c0.55228,0 1,0.44772 1,1c0,0.55228 -0.44772,1 -1,1c-0.55228,0 -1,-0.44772 -1,-1z" fill="#b0b3b3" stroke-width="0.5"/><path d="M250.34284,164.88503c0,-0.55228 0.44772,-1 1,-1c0.55228,0 1,0.44772 1,1c0,0.55228 -0.44772,1 -1,1c-0.55228,0 -1,-0.44772 -1,-1z" fill="#b0b3b3" stroke-width="0.5"/><path d="M250.34284,172.69579c0,-0.55228 0.44772,-1 1,-1c0.55228,0 1,0.44772 1,1c0,0.55228 -0.44772,1 -1,1c-0.55228,0 -1,-0.44772 -1,-1z" fill="#b0b3b3" stroke-width="0.5"/><path d="M242.27182,176.34077c0,-0.55228 0.44772,-1 1,-1c0.55228,0 1,0.44772 1,1c0,0.55228 -0.44772,1 -1,1c-0.55228,0 -1,-0.44772 -1,-1z" fill="#b0b3b3" stroke-width="0.5"/><path d="M254.24818,179.46505c0,-0.55228 0.44772,-1 1,-1c0.55228,0 1,0.44772 1,1c0,0.55228 -0.44772,1 -1,1c-0.55228,0 -1,-0.44772 -1,-1z" fill="#b0b3b3" stroke-width="0.5"/><path d="M252.94642,187.79644c0,-0.55228 0.44772,-1 1,-1c0.55228,0 1,0.44772 1,1c0,0.55228 -0.44772,1 -1,1c-0.55228,0 -1,-0.44772 -1,-1z" fill="#b0b3b3" stroke-width="0.5"/><path d="M246.04698,194.95627c0,-0.55228 0.44772,-1 1,-1c0.55228,0 1,0.44772 1,1c0,0.55228 -0.44772,1 -1,1c-0.55228,0 -1,-0.44772 -1,-1z" fill="#b0b3b3" stroke-width="0.5"/><path d="M254.11805,194.95627c0,-0.55228 0.44772,-1 1,-1c0.55228,0 1,0.44772 1,1c0,0.55228 -0.44772,1 -1,1c-0.55228,0 -1,-0.44772 -1,-1z" fill="#b0b3b3" stroke-width="0.5"/><path d="M233.15934,196.6486c0,-0.55228 0.44772,-1 1,-1c0.55228,0 1,0.44772 1,1c0,0.55228 -0.44772,1 -1,1c-0.55228,0 -1,-0.44772 -1,-1z" fill="#b0b3b3" stroke-width="0.5"/><path d="M233.94041,189.09826c0,-0.55228 0.44772,-1 1,-1c0.55228,0 1,0.44772 1,1c0,0.55228 -0.44772,1 -1,1c-0.55228,0 -1,-0.44772 -1,-1z" fill="#b0b3b3" stroke-width="0.5"/><path d="M222.09417,181.67807c0,-0.55228 0.44772,-1 1,-1c0.55228,0 1,0.44772 1,1c0,0.55228 -0.44772,1 -1,1c-0.55228,0 -1,-0.44772 -1,-1z" fill="#b0b3b3" stroke-width="0.5"/><path d="M231.5972,165.92648c0,-0.55228 0.44772,-1 1,-1c0.55228,0 1,0.44772 1,1c0,0.55228 -0.44772,1 -1,1c-0.55228,0 -1,-0.44772 -1,-1z" fill="#b0b3b3" stroke-width="0.5"/><path d="M225.86933,170.48276c0,-0.55228 0.44772,-1 1,-1c0.55228,0 1,0.44772 1,1c0,0.55228 -0.44772,1 -1,1c-0.55228,0 -1,-0.44772 -1,-1z" fill="#b0b3b3" stroke-width="0.5"/></g></g></svg>