<svg version="1.1" xmlns="http://www.w3.org/2000/svg" xmlns:xlink="http://www.w3.org/1999/xlink" width="37.01587" height="37.01587" viewBox="0,0,37.01587,37.01587"><g transform="translate(-221.49207,-161.49208)"><g stroke-miterlimit="10"><path d="M221.49208,198.50796v-37.01587h37.01587v37.01587z" fill="#bdc0c1" stroke="none" stroke-width="0"/><path d="M225.23254,178.65762l-2.01745,-7.80666l14.73618,8.68382z" fill="#ccca9e" stroke="#cdd0d1" stroke-width="1"/><path d="M244.70129,192.63967l-8.02249,-0.8086l13.24663,-10.82083z" fill="#ccca9e" stroke="#cdd0d1" stroke-width="1"/><path d="M248.03431,170.62552l-0.98881,2.15724l-1.75265,-4.71906z" fill="#ccca9e" stroke="#cdd0d1" stroke-width="1"/><path d="M227.04092,185.71359c0,-0.55228 0.44772,-1 1,-1c0.55228,0 1,0.44772 1,1c0,0.55228 -0.44772,1 -1,1c-0.55228,0 -1,-0.44772 -1,-1z" fill="#b0b3b3" stroke="none" stroke-width="0.5"/><path d="M225.99949,192.61304c0,-0.55228 0.44772,-1 1,-1c0.55228,0 1,0.44772 1,1c0,0.55228 -0.44772,1 -1,1c-0.55228,0 -1,-0.44772 -1,-1z" fill="#b0b3b3" stroke="none" stroke-width="0.5"/><path d="M238.49661,183.50055c0,-0.55228 0.44772,-1 1,-1c0.55228,0 1,0.44772 1,1c0,0.55228 -0.44772,1 -1,1c-0.55228,0 -1,-0.44772 -1,-1z" fill="#b0b3b3" stroke="none" stroke-width="0.5"/><path d="M236.1534,171.39397c0,-0.55228 0.44772,-1 1,-1c0.55228,0 1,0.44772 1,1c0,0.55228 -0.44772,1 -1,1c-0.55228,0 -1,-0.44772 -1,-1z" fill="#b0b3b3" stroke="none" stroke-width="0.5"/><path d="M224.56753,164.10399c0,-0.55228 0.44772,-1 1,-1c0.55228,0 1,0.44772 1,1c0,0.55228 -0.44772,1 -1,1c-0.55228,0 -1,-0.44772 -1,-1z" fill="#b0b3b3" stroke="none" stroke-width="0.5"/><path d="M241.10017,164.49452c0,-0.55228 0.44772,-1 1,-1c0.55228,0 1,0.44772 1,1c0,0.55228 -0.44772,1 -1,1c-0.55228,0 -1,-0.44772 -1,-1z" fill="#b0b3b3" stroke="none" stroke-width="0.5"/><path d="M250.34284,164.88503c0,-0.55228 0.44772,-1 1,-1c0.55228,0 1,0.44772 1,1c0,0.55228 -0.44772,1 -1,1c-0.55228,0 -1,-0.44772 -1,-1z" fill="#b0b3b3" stroke="none" stroke-width="0.5"/><path d="M250.34284,172.69575c0,-0.55228 0.44772,-1 1,-1c0.55228,0 1,0.44772 1,1c0,0.55228 -0.44772,1 -1,1c-0.55228,0 -1,-0.44772 -1,-1z" fill="#b0b3b3" stroke="none" stroke-width="0.5"/><path d="M242.27178,176.34075c0,-0.55228 0.44772,-1 1,-1c0.55228,0 1,0.44772 1,1c0,0.55228 -0.44772,1 -1,1c-0.55228,0 -1,-0.44772 -1,-1z" fill="#b0b3b3" stroke="none" stroke-width="0.5"/><path d="M254.24818,179.46503c0,-0.55228 0.44772,-1 1,-1c0.55228,0 1,0.44772 1,1c0,0.55228 -0.44772,1 -1,1c-0.55228,0 -1,-0.44772 -1,-1z" fill="#b0b3b3" stroke="none" stroke-width="0.5"/><path d="M252.9464,187.79644c0,-0.55228 0.44772,-1 1,-1c0.55228,0 1,0.44772 1,1c0,0.55228 -0.44772,1 -1,1c-0.55228,0 -1,-0.44772 -1,-1z" fill="#b0b3b3" stroke="none" stroke-width="0.5"/><path d="M246.04695,194.95625c0,-0.55228 0.44772,-1 1,-1c0.55228,0 1,0.44772 1,1c0,0.55228 -0.44772,1 -1,1c-0.55228,0 -1,-0.44772 -1,-1z" fill="#b0b3b3" stroke="none" stroke-width="0.5"/><path d="M254.11801,194.95625c0,-0.55228 0.44772,-1 1,-1c0.55228,0 1,0.44772 1,1c0,0.55228 -0.44772,1 -1,1c-0.55228,0 -1,-0.44772 -1,-1z" fill="#b0b3b3" stroke="none" stroke-width="0.5"/><path d="M233.1593,196.64856c0,-0.55228 0.44772,-1 1,-1c0.55228,0 1,0.44772 1,1c0,0.55228 -0.44772,1 -1,1c-0.55228,0 -1,-0.44772 -1,-1z" fill="#b0b3b3" stroke="none" stroke-width="0.5"/><path d="M233.94037,189.09822c0,-0.55228 0.44772,-1 1,-1c0.55228,0 1,0.44772 1,1c0,0.55228 -0.44772,1 -1,1c-0.55228,0 -1,-0.44772 -1,-1z" fill="#b0b3b3" stroke="none" stroke-width="0.5"/><path d="M222.09414,181.67806c0,-0.55228 0.44772,-1 1,-1c0.55228,0 1,0.44772 1,1c0,0.55228 -0.44772,1 -1,1c-0.55228,0 -1,-0.44772 -1,-1z" fill="#b0b3b3" stroke="none" stroke-width="0.5"/><path d="M231.59716,165.92648c0,-0.55228 0.44772,-1 1,-1c0.55228,0 1,0.44772 1,1c0,0.55228 -0.44772,1 -1,1c-0.55228,0 -1,-0.44772 -1,-1z" fill="#b0b3b3" stroke="none" stroke-width="0.5"/><path d="M225.86931,170.48272c0,-0.55228 0.44772,-1 1,-1c0.55228,0 1,0.44772 1,1c0,0.55228 -0.44772,1 -1,1c-0.55228,0 -1,-0.44772 -1,-1z" fill="#b0b3b3" stroke="none" stroke-width="0.5"/></g></g></svg>