<svg version="1.1" xmlns="http://www.w3.org/2000/svg" xmlns:xlink="http://www.w3.org/1999/xlink" width="24.91417" height="30.5604" viewBox="0,0,24.91417,30.5604"><g transform="translate(-230.39101,-169.39899)"><g stroke-miterlimit="10"><path d="M232.76923,176.47755c0,-3.90938 3.16918,-7.07856 7.07856,-7.07856c3.90938,0 7.07856,3.16918 7.07856,7.07856c0,3.90938 -3.16917,7.07856 -7.07856,7.07856c-3.90938,0 -7.07856,-3.16918 -7.07856,-7.07856z" fill="#20c500" stroke="none" stroke-width="0" stroke-linecap="butt"/><path d="M240.5361,179.41243l-1.65292,13.90282l-7.24217,2.44496" fill="none" stroke="#20c500" stroke-width="2.5" stroke-linecap="round"/><path d="M240.56293,182.99239c0,0 5.25334,1.91239 6.97094,3.08596c1.17393,0.80211 2.33943,3.27549 2.33943,3.27549" fill="none" stroke="#20c500" stroke-width="2.5" stroke-linecap="round"/><path d="M239.12566,191.48853l7.72773,7.22086" fill="none" stroke="#20c500" stroke-width="2.5" stroke-linecap="round"/><path d="M239.61555,184.17795c0,0 7.97992,-1.66209 10.63352,-1.54972c1.58759,0.06723 3.80611,2.16117 3.80611,2.16117" fill="none" stroke="#20c500" stroke-width="2.5" stroke-linecap="round"/></g></g></svg>