<svg version="1.1" xmlns="http://www.w3.org/2000/svg" xmlns:xlink="http://www.w3.org/1999/xlink" width="38.51587" height="38.51587" viewBox="0,0,38.51587,38.51587"><g transform="translate(-220.74208,-160.74209)"><g stroke-miterlimit="10"><path d="M221.49208,198.50797v-37.01587h37.01587v37.01587z" fill="#bdc0c1" stroke="#000000" stroke-width="1.5"/><path d="M225.23255,178.65763l-2.01745,-7.80666l14.73618,8.68382z" fill="#ccca9e" stroke="#cdd0d1" stroke-width="1"/><path d="M244.7013,192.63968l-8.02249,-0.8086l13.24663,-10.82083z" fill="#ccca9e" stroke="#cdd0d1" stroke-width="1"/><path d="M248.03432,170.62553l-0.98881,2.15724l-1.75265,-4.71906z" fill="#ccca9e" stroke="#cdd0d1" stroke-width="1"/><path d="M227.04093,185.7136c0,-0.55228 0.44772,-1 1,-1c0.55228,0 1,0.44772 1,1c0,0.55228 -0.44772,1 -1,1c-0.55228,0 -1,-0.44772 -1,-1z" fill="#b0b3b3" stroke="none" stroke-width="0.5"/><path d="M225.9995,192.61305c0,-0.55228 0.44772,-1 1,-1c0.55228,0 1,0.44772 1,1c0,0.55228 -0.44772,1 -1,1c-0.55228,0 -1,-0.44772 -1,-1z" fill="#b0b3b3" stroke="none" stroke-width="0.5"/><path d="M238.49662,183.50056c0,-0.55228 0.44772,-1 1,-1c0.55228,0 1,0.44772 1,1c0,0.55228 -0.44772,1 -1,1c-0.55228,0 -1,-0.44772 -1,-1z" fill="#b0b3b3" stroke="none" stroke-width="0.5"/><path d="M236.15341,171.39398c0,-0.55228 0.44772,-1 1,-1c0.55228,0 1,0.44772 1,1c0,0.55228 -0.44772,1 -1,1c-0.55228,0 -1,-0.44772 -1,-1z" fill="#b0b3b3" stroke="none" stroke-width="0.5"/><path d="M224.56754,164.104c0,-0.55228 0.44772,-1 1,-1c0.55228,0 1,0.44772 1,1c0,0.55228 -0.44772,1 -1,1c-0.55228,0 -1,-0.44772 -1,-1z" fill="#b0b3b3" stroke="none" stroke-width="0.5"/><path d="M241.10017,164.49453c0,-0.55228 0.44772,-1 1,-1c0.55228,0 1,0.44772 1,1c0,0.55228 -0.44772,1 -1,1c-0.55228,0 -1,-0.44772 -1,-1z" fill="#b0b3b3" stroke="none" stroke-width="0.5"/><path d="M250.34285,164.88504c0,-0.55228 0.44772,-1 1,-1c0.55228,0 1,0.44772 1,1c0,0.55228 -0.44772,1 -1,1c-0.55228,0 -1,-0.44772 -1,-1z" fill="#b0b3b3" stroke="none" stroke-width="0.5"/><path d="M250.34285,172.69576c0,-0.55228 0.44772,-1 1,-1c0.55228,0 1,0.44772 1,1c0,0.55228 -0.44772,1 -1,1c-0.55228,0 -1,-0.44772 -1,-1z" fill="#b0b3b3" stroke="none" stroke-width="0.5"/><path d="M242.27179,176.34076c0,-0.55228 0.44772,-1 1,-1c0.55228,0 1,0.44772 1,1c0,0.55228 -0.44772,1 -1,1c-0.55228,0 -1,-0.44772 -1,-1z" fill="#b0b3b3" stroke="none" stroke-width="0.5"/><path d="M254.24818,179.46504c0,-0.55228 0.44772,-1 1,-1c0.55228,0 1,0.44772 1,1c0,0.55228 -0.44772,1 -1,1c-0.55228,0 -1,-0.44772 -1,-1z" fill="#b0b3b3" stroke="none" stroke-width="0.5"/><path d="M252.94641,187.79645c0,-0.55228 0.44772,-1 1,-1c0.55228,0 1,0.44772 1,1c0,0.55228 -0.44772,1 -1,1c-0.55228,0 -1,-0.44772 -1,-1z" fill="#b0b3b3" stroke="none" stroke-width="0.5"/><path d="M246.04696,194.95626c0,-0.55228 0.44772,-1 1,-1c0.55228,0 1,0.44772 1,1c0,0.55228 -0.44772,1 -1,1c-0.55228,0 -1,-0.44772 -1,-1z" fill="#b0b3b3" stroke="none" stroke-width="0.5"/><path d="M254.11802,194.95626c0,-0.55228 0.44772,-1 1,-1c0.55228,0 1,0.44772 1,1c0,0.55228 -0.44772,1 -1,1c-0.55228,0 -1,-0.44772 -1,-1z" fill="#b0b3b3" stroke="none" stroke-width="0.5"/><path d="M233.15931,196.64857c0,-0.55228 0.44772,-1 1,-1c0.55228,0 1,0.44772 1,1c0,0.55228 -0.44772,1 -1,1c-0.55228,0 -1,-0.44772 -1,-1z" fill="#b0b3b3" stroke="none" stroke-width="0.5"/><path d="M233.94038,189.09823c0,-0.55228 0.44772,-1 1,-1c0.55228,0 1,0.44772 1,1c0,0.55228 -0.44772,1 -1,1c-0.55228,0 -1,-0.44772 -1,-1z" fill="#b0b3b3" stroke="none" stroke-width="0.5"/><path d="M222.09415,181.67807c0,-0.55228 0.44772,-1 1,-1c0.55228,0 1,0.44772 1,1c0,0.55228 -0.44772,1 -1,1c-0.55228,0 -1,-0.44772 -1,-1z" fill="#b0b3b3" stroke="none" stroke-width="0.5"/><path d="M231.59717,165.92649c0,-0.55228 0.44772,-1 1,-1c0.55228,0 1,0.44772 1,1c0,0.55228 -0.44772,1 -1,1c-0.55228,0 -1,-0.44772 -1,-1z" fill="#b0b3b3" stroke="none" stroke-width="0.5"/><path d="M225.86932,170.48273c0,-0.55228 0.44772,-1 1,-1c0.55228,0 1,0.44772 1,1c0,0.55228 -0.44772,1 -1,1c-0.55228,0 -1,-0.44772 -1,-1z" fill="#b0b3b3" stroke="none" stroke-width="0.5"/></g></g></svg>