<svg version="1.1" xmlns="http://www.w3.org/2000/svg" xmlns:xlink="http://www.w3.org/1999/xlink" width="38.51587" height="38.51587" viewBox="0,0,38.51587,38.51587"><defs><radialGradient cx="240.00002" cy="180.00003" r="18.50794" gradientUnits="userSpaceOnUse" id="color-1"><stop offset="0" stop-color="#b04fc3"/><stop offset="1" stop-color="#aa4dbd" stop-opacity="0.10588"/></radialGradient></defs><g transform="translate(-220.74208,-160.74208)"><g stroke-miterlimit="10"><path d="M221.49209,198.50796v-37.01587h37.01587v37.01587z" fill="url(#color-1)" stroke="#000000" stroke-width="1.5"/><path d="M225.77585,168.79185c0,-1.38071 1.11929,-2.5 2.5,-2.5c1.38071,0 2.5,1.11929 2.5,2.5c0,1.38071 -1.11929,2.5 -2.5,2.5c-1.38071,0 -2.5,-1.11929 -2.5,-2.5z" fill-opacity="0.74902" fill="#c883d6" stroke="none" stroke-width="0.5"/><path d="M250.77585,178.29185c0,-1.38071 1.11929,-2.5 2.5,-2.5c1.38071,0 2.5,1.11929 2.5,2.5c0,1.38071 -1.11929,2.5 -2.5,2.5c-1.38071,0 -2.5,-1.11929 -2.5,-2.5z" fill-opacity="0.74902" fill="#c883d6" stroke="none" stroke-width="0.5"/><path d="M238.40085,193.79185c0,-1.38071 1.11929,-2.5 2.5,-2.5c1.38071,0 2.5,1.11929 2.5,2.5c0,1.38071 -1.11929,2.5 -2.5,2.5c-1.38071,0 -2.5,-1.11929 -2.5,-2.5z" fill-opacity="0.74902" fill="#c883d6" stroke="none" stroke-width="0.5"/></g></g></svg>