<svg version="1.1" xmlns="http://www.w3.org/2000/svg" xmlns:xlink="http://www.w3.org/1999/xlink" width="60.21116" height="41.2123" viewBox="0,0,60.21116,41.2123"><g transform="translate(-204.67231,-153.84257)"><g stroke-miterlimit="10"><path d="M232.70181,169.01816c-0.25419,-3.90111 2.82842,-5.33291 6.72952,-5.5871c3.90111,-0.25419 7.14345,0.76549 7.39764,4.6666c0.25419,3.90111 -2.40128,11.88801 -6.3024,12.1422c-3.90111,0.25419 -7.57057,-7.32059 -7.82476,-11.22169z" fill="#000000" stroke="#20c500" stroke-width="0" stroke-linecap="butt"/><path d="M255.9458,175.74837c0.11353,2.77851 -2.82379,3.10779 -4.5963,1.55214c-2.89796,-2.5434 -1.37783,-7.40235 -1.16362,-11.47647c-0.91787,0.52078 -1.85332,1.01382 -2.81822,1.45769c-0.78692,0.36199 -4.1252,2.29578 -4.95886,1.03495l-0.53678,-0.81182c-0.39272,0.74139 -1.14942,1.26788 -2.04808,1.32643c-0.29571,0.01927 -0.58276,-0.0137 -0.85214,-0.09099c-3.35162,1.2306 -8.50371,1.00736 -13.22308,0.56879c0.13962,2.41588 -0.91429,5.30161 -0.82552,7.92348c0.0588,1.73643 1.32136,6.09823 -2.09345,6.32073c-5.04734,0.32888 -2.21899,-9.67713 -2.22682,-12.38818c-0.00116,-0.4025 -0.07513,-1.41953 -0.07678,-2.39714c-1.1965,-0.12357 -2.27789,-0.22334 -3.18597,-0.26702c-3.1088,-0.14954 2.76326,10.14318 -2.58742,10.49183c-4.12062,0.26849 -3.18758,-12.6162 -3.1975,-12.91942c-0.01404,-0.42927 0.04217,-0.88171 0.23056,-1.26767c0.96048,-1.96779 3.82194,-1.27912 5.56776,-1.27442c4.28453,0.01156 8.66668,1.10154 12.90577,0.91263c3.50771,-0.15631 8.59151,-3.26864 10.52807,-0.3398c0.41898,0.21183 0.77227,0.53874 1.01568,0.94192c0.42389,-0.53249 0.92913,-1.01159 1.49419,-1.45054c3.12223,-2.4254 8.0708,-3.62445 11.21457,-5.82469c1.06099,-0.74257 3.51599,-2.9449 4.80863,-3.43519c1.52923,-0.58002 3.95852,-0.93142 4.98097,0.61493c1.50078,2.26976 -0.39021,4.93023 -0.25961,7.28248c0.22294,4.01533 0.6172,8.02098 0.78445,12.03903c0.05477,1.31573 -0.72409,2.55248 -2.33216,2.65726c-1.60727,0.10473 -2.54124,-1.02042 -2.65726,-2.33216c-0.35955,-4.06487 -0.54498,-8.14331 -0.796,-12.21632c-0.03828,-0.6211 0.66534,-2.14398 0.10983,-1.86357c-1.47374,0.7439 -2.8932,1.59558 -4.30536,2.47029c0.15244,0.21136 0.25697,0.492 0.31477,0.8923c0.01345,0.08135 0.02301,0.16411 0.02848,0.24811c0.34128,3.86665 0.59869,7.74196 0.75717,11.6204z" fill="#000000" stroke="none" stroke-width="0.5" stroke-linecap="butt"/><path d="M242.27108,180.00426l8.82796,-2.15881l3.48207,5.097" fill="none" stroke="#000000" stroke-width="2.5" stroke-linecap="round"/><path d="M243.14831,188.29008c0.14062,0.57088 1.24069,-0.09027 1.75256,0.19897c1.9393,1.09583 3.37161,0.06043 5.0298,2.62203c0.89397,1.38101 -2.015,3.61877 -3.02526,3.74015c-3.44588,0.41397 -8.45441,0.65227 -8.75325,-4.04337c-0.2178,-3.42226 -0.5339,-6.83927 -0.6689,-10.26579c-0.00117,-0.0298 -0.00266,-0.06039 -0.00432,-0.0916c-0.03887,-1.33855 0.98931,-2.47788 2.33647,-2.56566c1.37779,-0.08977 2.56749,0.95437 2.65726,2.33216c0.0097,0.14894 0.00616,0.29569 -0.00963,0.43908c0.70747,2.10013 -0.02504,4.75027 0.68527,7.63406z" fill="#000000" stroke="none" stroke-width="0.5" stroke-linecap="butt"/><path d="M231.18839,186.68732c-0.65977,0.51961 -1.48579,1.08221 -2.31974,0.98309c-0.29921,-0.03556 -2.73741,-2.2652 -4.11613,-3.83621c-0.35357,-0.26619 -0.63152,-0.62271 -0.80336,-1.03083c-1.73968,2.0721 -3.74957,3.79717 -5.28569,3.07391c-2.97765,-1.402 -0.32306,-5.10427 2.04847,-7.82236c-4.16434,-4.13831 -7.19885,-9.23676 -11.17742,-13.58974c-1.61224,-1.76395 -6.73594,-5.77712 -4.14173,-8.332c2.65868,-2.61838 5.19486,2.05284 6.40201,3.47154c3.72138,4.37357 7.07299,9.17285 10.87337,13.45298c0.21563,0.24285 0.69977,0.65098 1.27308,1.13577c0.7367,-1.04744 1.88406,-2.44498 2.69179,-2.11808c0.20498,-0.0277 0.41676,-0.03022 0.63167,-0.00467c1.37106,0.16296 2.35043,1.40652 2.18747,2.77759c0.39045,0.65056 -1.66508,2.53189 -1.96934,2.99485c-0.08152,0.12403 -0.17977,0.27586 -0.29303,0.45059c0.01274,0.16167 0.00986,0.32698 -0.01001,0.49419c-0.02699,0.22702 -0.08359,0.4433 -0.1655,0.64545c1.763,0.58177 6.71308,5.25437 4.17407,7.25397z" fill="#20c500" stroke="none" stroke-width="0.5" stroke-linecap="butt"/><path d="M224.82888,184.09029l3.46841,-5.41562l9.84436,1.0764" fill="none" stroke="#000000" stroke-width="2.5" stroke-linecap="round"/><path d="M232.66142,170.83223c-0.08977,-1.37779 0.95437,-2.56749 2.33216,-2.65726c1.37779,-0.08977 2.56749,0.95437 2.65726,2.33216c0.08977,1.37779 -0.95437,2.56749 -2.33216,2.65726c-1.37779,0.08977 -2.56749,-0.95437 -2.65726,-2.33216z" fill="#ffffff" stroke="none" stroke-width="0.5" stroke-linecap="butt"/><path d="M239.65375,170.227c-0.08977,-1.37779 0.95437,-2.56749 2.33216,-2.65726c1.37779,-0.08977 2.56749,0.95437 2.65726,2.33216c0.08977,1.37779 -0.95437,2.56749 -2.33216,2.65726c-1.37779,0.08977 -2.56749,-0.95437 -2.65726,-2.33216z" fill="#ffffff" stroke="none" stroke-width="0.5" stroke-linecap="butt"/><path d="M245.52803,173.89569c0.93948,0.82454 0.11494,1.76403 0.11494,1.76403l-0.40459,0.44195c-0.68582,0.42251 -1.25453,1.20296 -2.05745,1.26753c-0.47254,0.03801 -0.54505,-0.85471 -0.98839,-1.02259c-0.80792,-0.30592 -1.56859,1.05827 -2.42183,0.9229c-0.7734,-0.1227 -1.08903,-1.8538 -1.79519,-1.51533c-0.29138,0.13966 -0.57573,1.66868 -0.50046,2.0954c0,0 0.08128,1.24735 -1.16608,1.32863c-1.24735,0.08128 -1.32863,-1.16608 -1.32863,-1.16608c-0.01627,-1.26221 0.59937,-4.31615 2.34996,-4.67326c1.05848,-0.21592 1.83831,1.21479 2.88776,1.47099c0.87425,0.21343 1.65747,-1.03711 2.54641,-0.89695c0.38107,0.06009 0.27239,0.8409 0.6373,0.96606c0.22303,0.07649 0.13982,-0.45036 0.20973,-0.67554l0.1525,-0.19279c0,0 0.82454,-0.93948 1.76403,-0.11494z" fill="#ffffff" stroke="none" stroke-width="0.5" stroke-linecap="butt"/></g></g></svg>