<svg version="1.1" xmlns="http://www.w3.org/2000/svg" xmlns:xlink="http://www.w3.org/1999/xlink" width="179.51033" height="136.14865" viewBox="0,0,179.51033,136.14865"><g transform="translate(-151.45769,-96.71827)"><g stroke-miterlimit="10"><path d="M167.51374,157.20768c6.48929,-8.36909 14.10665,-14.20638 21.3551,-21.65723c10.21983,-10.50521 24.11821,-31.37705 40.7129,-30.0276c7.85872,0.63906 13.45489,3.30191 19.69192,8.68843c1.5264,1.31825 3.16881,9.50276 4.35596,9.39712c2.37619,-0.21144 3.14412,-3.58889 4.74187,-5.36038c1.08902,-1.20744 2.36263,-2.28202 3.43494,-3.50102c7.36183,-8.36896 11.21614,-14.02893 23.01486,-17.80368c3.60663,-1.15386 14.12606,2.48967 14.76121,2.79576c11.21607,5.40533 15.23701,17.06497 13.80663,28.50798c-0.46938,3.75501 -1.7914,7.09284 -2.9856,10.72392c-0.36935,1.12303 -2.21216,2.71868 -1.20394,3.33602c1.33239,0.81581 6.19028,1.76668 7.78394,2.48107c8.1406,3.64924 13.74214,12.37075 13.97543,20.96314c0.57623,21.22323 -26.43922,32.60856 -38.61182,46.52345c-5.3955,6.16777 -7.64554,13.68632 -15.0513,17.52515c-1.14823,0.59519 -1.92397,1.89625 -3.17249,2.23369c-8.57511,2.3176 -22.20861,-0.25498 -28.04318,-7.0108c-2.80965,-3.25329 -4.9273,-8.92967 -5.4718,-13.0523c-0.17135,-1.29731 -0.32289,-2.59942 -0.39062,-3.90625c-0.06443,-1.24294 0.8448,-4.65735 0.01042,-3.73383c-5.94128,6.57609 -9.10286,16.94434 -16.98096,21.85791c-3.03078,1.89029 -6.60363,2.78144 -10.05186,3.71339c-8.85997,2.39459 -22.43116,-3.98152 -26.27627,-12.30714c-1.07496,-2.32757 -0.19503,-5.91296 -2.33207,-7.32936c-2.13241,0.73287 -4.39515,1.18544 -6.74423,1.31372c-1.03011,0.34334 -1.99535,0.59772 -2.76155,0.57092c-3.51829,-0.12309 -7.57748,-1.62454 -11.30286,-3.98249c-1.98164,-1.16842 -3.78804,-2.60235 -5.37025,-4.25289c-3.59688,-3.54216 -6.171,-7.85088 -6.41965,-12.149c-0.34787,-1.66161 -0.53077,-3.38385 -0.53077,-5.14881c0,-6.10282 2.18674,-11.69491 5.81942,-16.03545c3.06779,-4.69313 6.87736,-9.04108 10.23663,-13.37343z" fill-opacity="0.6549" fill="#ffa8a8" stroke="none" stroke-width="0"/><path d="M182.42202,132.99928c0.19659,5.19955 1.05047,10.2374 1.59839,15.43231c0.15875,1.50508 -0.04002,5.60125 0.78672,6.96563c0.6085,1.00421 3.20841,-0.14772 3.36084,-0.19053c3.70684,-1.04099 4.73573,-3.08455 5.47099,-6.69832c0.39477,-1.94025 2.08648,-5.96775 -1.19161,-5.25118c-0.88187,0 -1.76374,0 -2.64561,0h-2.6456c-1.38071,0 -2.5,-1.11929 -2.5,-2.5c0,-0.77872 0.35604,-1.47428 0.91421,-1.93277l1.96954,-1.64129l0.03601,0.04322c0.06393,-0.07277 0.12925,-0.14443 0.19607,-0.21492c0.36066,-0.38042 4.69139,-1.48784 4.05175,-3.15926c-0.33896,-0.88572 -1.89142,-0.14521 -2.83872,-0.19014c-1.92511,-0.09131 -3.82716,-0.45907 -5.74265,-0.67186zM180.48068,128.39013c0.66638,-0.38467 1.38424,-0.38467 1.38424,-0.38467l1.92958,0.01529c3.54111,0.39353 10.90466,-0.39944 12.5835,3.76782c1.1857,2.9432 0.38503,4.85115 -1.17867,6.41449c0.3967,0.04128 0.77158,0.14546 1.10556,0.36753c6.33692,4.2135 2.10603,16.96572 -3.2046,20.18688c-3.46382,2.10098 -9.09382,3.18435 -12.19336,-0.23161c-0.98054,-1.08064 -1.34282,-5.02842 -1.52475,-6.56244c-0.83615,-7.05004 -1.99733,-14.00827 -2.00144,-21.12725c0,0 0,-2.5 2.5,-2.5c0.21854,0 0.41797,0.0191 0.59996,0.05397z" fill="#ffffff" stroke-opacity="0.50196" stroke="#000000" stroke-width="1"/><path d="M222.793,152.8672c1.11803,2.23607 -1.11803,3.3541 -1.11803,3.3541l-0.79464,0.39249c-4.22191,1.76676 -13.08683,3.67434 -15.8154,-1.56817c-0.2875,-0.55239 -0.23603,-5.54451 -0.23603,-6.6823c0,-5.84239 0,-11.68476 0,-17.52715c0,0 0,-2.5 2.5,-2.5c2.5,0 2.5,2.5 2.5,2.5c0,4.85028 0,9.70057 0,14.55085c0,2.25555 -0.55944,5.33928 -0.23603,7.53784c0.13123,0.89207 1.79531,0.2421 2.69654,0.21389c2.60746,-0.08163 4.21631,-0.05757 6.62132,-1.12067l0.52817,-0.26891c0,0 2.23606,-1.11803 3.3541,1.11804z" fill="#ffffff" stroke-opacity="0.50196" stroke="#000000" stroke-width="1"/><path d="M270.45619,146.55029c2.14373,1.28624 0.8575,3.42997 0.8575,3.42997l-1.36807,2.13503c-3.8105,3.77109 -8.31096,5.80252 -13.86266,4.22062c-0.92253,-0.26287 -1.41106,-1.33823 -2.26505,-1.7751c-0.97527,-0.49891 -2.34007,-0.23303 -3.13463,-0.98717c-3.16605,-3.00501 -1.88342,-9.63605 -1.87118,-13.47785c0.00846,-2.65573 -0.30355,-6.21175 1.52478,-8.48732c3.00545,-3.74063 7.29512,-2.30356 11.22695,-2.2802c2.56346,0.01523 5.15185,0.57621 7.5425,1.50161c0,0 2.32119,0.92848 1.39272,3.24967c-0.92847,2.32119 -3.24967,1.39272 -3.24967,1.39272c-3.43473,-1.43241 -5.47314,-0.90803 -9.1308,-1.14782c-0.98577,-0.06463 -2.98502,-1.00976 -3.84704,0.36923c-0.695,1.11181 -0.46313,4.35342 -0.45943,5.40212c0.00777,2.20466 0.02066,4.40944 0,6.61402c-0.00956,1.01972 -0.7848,2.57364 0.11303,3.0572c0.64052,0.34498 1.50169,0.01878 2.15658,0.33563c0.68741,0.33258 0.97356,1.30718 1.70337,1.53191c3.56316,1.09718 6.31078,-0.71093 8.62501,-3.0548l0.61613,-1.17197c0,0 1.28624,-2.14373 3.42997,-0.8575z" fill="#ffffff" stroke-opacity="0.50196" stroke="#000000" stroke-width="1"/><path d="M302.00528,158.67899c-1.38675,2.08013 -3.46688,0.69338 -3.46688,0.69338l-0.72339,-0.50546c-2.75774,-1.38983 -5.13201,-3.13621 -7.77101,-4.72017c-0.96561,-0.57958 -4.97432,-3.02794 -5.61461,-3.87223c-0.72221,-0.95232 -1.22526,-2.13811 -1.53377,-3.44849c-0.18943,2.03475 -0.31252,4.08616 -0.31252,6.1671v2.31491c0,0 0,2.5 -2.5,2.5c-2.5,0 -2.5,-2.5 -2.5,-2.5v-2.31491c0,-9.02681 2.3149,-17.51926 2.3149,-26.45607c0,0 0,-2.5 2.5,-2.5c2.5,0 2.5,2.5 2.5,2.5c0,2.98194 -0.2562,5.90911 -0.59813,8.82018c0.31561,-0.63002 0.66829,-1.20777 1.05412,-1.7159c3.18917,-4.2001 8.86336,-3.37696 12.61349,-6.68752c0,0 1.89814,-1.62698 3.52512,0.27116c1.62698,1.89814 -0.27116,3.52512 -0.27116,3.52512c-1.74372,1.4618 -3.70045,2.80699 -5.87568,3.47469c-1.85243,0.56861 -4.66204,0.59761 -5.98271,2.40443c-0.61009,0.83467 -1.08339,3.77353 -1.22492,4.37165c-0.30406,1.28509 -0.93924,2.80504 -0.64898,4.19786c0.43944,2.10871 0.89389,1.99595 2.58188,3.07064c3.2782,2.08714 6.51255,4.40763 9.98006,6.1254l1.26082,0.81734c0,0 2.08013,1.38675 0.69338,3.46688z" fill="#ffffff" stroke-opacity="0.50196" stroke="#000000" stroke-width="1"/><path d="M222.87705,149.32002c-0.54274,-1.19507 -0.15581,-2.62093 -0.1903,-3.93301c-0.06094,-2.31824 -0.67456,-7.21185 0.12829,-9.3888c2.51436,-6.81776 8.69926,-7.75782 14.93834,-7.66205c3.11899,0.04788 5.2656,-0.38551 7.47782,2.94159c0.7143,1.07428 0.2513,2.56894 0.3134,3.85753c0.16227,3.36723 0.53876,7.6366 -1.3966,10.62302c-0.78443,1.21044 -2.17537,1.89466 -3.26306,2.84198c-3.32498,0.87856 -17.43623,1.9785 -18.00789,0.71974zM227.68753,144.97556c0.68839,-0.43505 1.46762,-0.43505 1.46762,-0.43505h2.3149c2.43872,0 4.73497,0.14811 7.12017,-0.38256c2.92477,-2.41049 1.69261,-5.61544 1.95437,-9.02266c0.03747,-0.48774 0.51051,-0.98598 0.31339,-1.43369c-0.34282,-0.7786 -2.96914,-0.36808 -3.10461,-0.36542c-4.05024,0.07954 -8.37619,-0.46432 -10.19493,4.24319c-0.61434,1.59013 0.08025,5.42645 0.12908,7.39621z" fill="#ffffff" stroke-opacity="0.50196" stroke="#000000" stroke-width="1"/><path d="M192.44735,211.38159c-2.5,0 -2.5,-2.5 -2.5,-2.5l0.04855,-1.16322c-0.31904,-1.69051 -0.97641,-3.31265 -1.70336,-4.87186c-0.20441,-0.43843 0.01017,-1.1481 -0.40701,-1.39298c-0.41143,-0.24149 -0.91538,0.29795 -1.39079,0.33773c-0.8788,0.07353 -1.76374,0 -2.64561,0c-4.17913,0 -8.38148,0.19506 -12.16995,-1.9924c-2.5706,-1.48426 -3.78555,-4.00705 -5.80216,-6.01525c-1.83634,-1.82869 -3.69637,-3.68697 -5.68651,-5.35826c-0.73396,-1.08423 -1.77105,-2.0163 -2.20188,-3.25268c-0.12491,-0.35849 -0.14771,-5.96699 -0.11669,-6.49815c0.46132,-7.90117 6.26642,-16.94102 14.75861,-17.91092c3.70202,-0.42282 7.99724,-0.12903 11.48928,1.15363c4.75268,1.7457 8.92603,6.1842 13.25149,8.77424c0,0 2.14373,1.28624 0.8575,3.42997c-1.28624,2.14373 -3.42998,0.8575 -3.42998,0.8575c-4.0406,-2.42894 -8.11004,-6.78205 -12.54318,-8.42221c-2.71681,-1.00516 -6.14955,-1.09827 -9.01418,-0.83058c-5.97727,0.55857 -10.16125,7.79659 -10.37466,13.17496c-0.09941,2.5054 -0.55361,4.20124 0.98844,6.12282c1.94884,1.61061 3.77731,3.43733 5.55732,5.22416c1.58931,1.59539 2.75086,4.08792 4.78028,5.22857c3.75723,2.11181 8.23197,1.10463 12.30192,1.31461c1.30327,0.06724 2.77266,-0.31893 3.90042,0.33773c2.70664,1.576 3.94608,6.93997 4.50364,9.60881l0.04855,2.1438c0,0 0,2.5 -2.5,2.5z" fill="#f33f3f" stroke-opacity="0.50196" stroke="#000000" stroke-width="1"/><path d="M221.60409,207.00784c-2.42535,-0.60634 -1.81901,-3.0317 -1.81901,-3.0317l0.27536,-1.02656c0.24376,-1.24076 0.01576,-2.67971 0.73127,-3.72227c1.72732,-2.51685 6.06427,-2.9938 8.62376,-4.18325c0.89371,-0.41532 1.65262,-1.11773 2.58683,-1.43152c1.89105,-0.63521 4.57454,-0.36988 6.20018,-1.93785c0.67958,-0.65547 0.3629,-2.79757 0.35792,-3.29656c-0.02967,-2.97531 0,-5.95349 0,-8.92893c0,-2.0123 0.46878,-4.37841 -0.30607,-6.25508c-5.59826,-0.59847 -12.58827,-0.88357 -18.09144,0.41497c-1.7994,0.42459 -3.10145,2.04377 -4.79089,2.79468c-0.91103,0.40493 -2.08798,-0.00634 -2.94962,0.49518c-0.34647,0.20166 0.02801,0.80136 0.0334,1.2022c0.01198,0.89022 0.01578,1.78055 0.01873,2.67085c0.01938,5.84223 0,11.68488 0,17.52715c0,0 0,2.5 -2.5,2.5c-2.5,0 -2.5,-2.5 -2.5,-2.5c0,-5.84229 -0.01749,-11.68489 0,-17.52715c0.00617,-2.06323 -0.29841,-5.72806 1.37493,-7.37078c1.08822,-1.06832 2.96069,-0.80932 4.32581,-1.48903c1.96835,-0.98007 3.66337,-2.60488 5.79154,-3.15793c6.66046,-1.73087 15.7216,-1.35441 22.25408,0.41497c0.75193,1.22856 1.83375,2.30849 2.25579,3.68568c0.10245,0.33432 0.08375,5.64381 0.08375,6.59428c0,4.39109 1.47131,11.9677 -1.62629,15.55339c-2.22087,2.57081 -5.53884,2.4246 -8.35066,3.35336c-1.70347,0.56267 -3.19351,1.65411 -4.87327,2.28402c-2.30383,0.86393 -3.79814,0.46399 -3.68833,2.92978l-0.38604,1.61905c0,0 -0.60634,2.42536 -3.0317,1.81902z" fill="#f33f3f" stroke-opacity="0.50196" stroke="#000000" stroke-width="1"/><path d="M255.78143,217.38141c-2.49316,-0.18474 -2.30842,-2.67791 -2.30842,-2.67791l0.21372,-2.87522c0.54957,-4.46343 1.70087,-8.68315 1.94957,-13.21901c0.05191,-0.94679 0.03021,-1.90162 -0.01672,-2.8582c-0.43584,-0.25774 -0.83191,-0.70732 -1.05572,-1.47179c-0.40871,-1.39603 0.23267,-2.21759 0.84052,-2.66056c-0.01328,-0.66537 -0.00462,-1.32715 0.0427,-1.98317c0.19859,-2.75331 1.20713,-4.94949 0.65594,-7.80692c-0.55174,-2.86024 -1.71917,-5.81904 -2.53938,-8.62061c0,0 -0.18825,-0.64301 -0.03697,-1.36073c-0.04023,-0.09973 -0.07713,-0.20596 -0.11024,-0.31909c-0.70243,-2.39929 1.69686,-3.10172 1.69686,-3.10172c5.18386,-1.51766 10.36771,-3.03532 15.55157,-4.55297c0.91236,-0.26711 5.92014,-1.8086 6.57116,-1.6351c1.53132,0.4081 2.83609,1.57999 3.83449,2.81072c1.30916,1.61381 2.14024,6.57743 2.65177,8.63317c0.30583,1.22908 1.0264,2.4688 0.79884,3.71475c-0.21476,1.17588 -1.4628,1.90563 -2.01861,2.96389c-0.47066,0.89615 -0.45507,2.02592 -1.03704,2.85412c-0.76329,1.08623 -1.77513,2.02092 -2.89247,2.7379c-0.37579,0.24114 -1.03431,-0.12348 -1.41505,0.00077c0.17212,0.23543 0.31921,0.52979 0.42662,0.89668c0.03683,0.12579 0.06513,0.24692 0.0857,0.36352c0.0168,0.02886 0.03111,0.05806 0.04239,0.08761c0.41616,1.08973 0.65795,2.23827 0.98692,3.35741c1.30675,4.46345 2.19769,9.38958 3.98458,13.67678c1.06029,2.54388 2.8808,5.05733 4.21443,7.47848l0.46039,0.6403c0,0 1.42511,2.05404 -0.62893,3.47914c-2.05404,1.42511 -3.47914,-0.62893 -3.47914,-0.62893l-0.73187,-1.07814c-1.41009,-2.55997 -3.3018,-5.22109 -4.42585,-7.91021c-1.87184,-4.47808 -2.82759,-9.59153 -4.19219,-14.25256c-0.10611,-0.36381 -0.25496,-0.83551 -0.41919,-1.37268c-4.33889,1.3897 -8.55923,3.01858 -12.93351,4.41109c0.08136,1.26859 0.14796,2.53748 0.0803,3.78415c-0.24985,4.60357 -1.43318,8.90305 -1.9654,13.42624l-0.20387,2.76035c0,0 -0.18474,2.49316 -2.67791,2.30842zM261.02623,180.95577c0.59652,3.26376 -0.31905,5.82411 -0.58281,8.92619c4.00852,-1.32329 7.90304,-2.80578 11.91504,-4.07923c-0.07296,-0.82281 -0.0319,-1.55114 0.19945,-2.06663c0.52211,-1.16336 2.23023,-1.24479 3.27996,-1.9687c1.21724,-0.83943 1.5376,-2.52637 2.27815,-3.80617c0.35489,-0.61332 1.30382,-0.82858 1.49552,-1.51075c0.13771,-0.49002 -0.51493,-0.88458 -0.68784,-1.36331c-0.83263,-2.30526 -1.06308,-4.99021 -1.99412,-7.23577c-0.55727,-1.34408 -4.14034,0.61004 -4.85986,0.8207c-4.48771,1.31385 -8.97541,2.6277 -13.46312,3.94155c0.84295,2.72527 1.91669,5.59034 2.41964,8.34213z" fill="#f33f3f" stroke-opacity="0.50196" stroke="#000000" stroke-width="1"/><path d="M323.58212,183.07112c2,1.5 0.5,3.5 0.5,3.5l-2.11429,2.16363c-7.67681,2.87084 -16.00712,2.35906 -24.17248,2.18598c0,4.66415 0,9.3283 0,13.99245c0,0.4423 -0.75426,6.08395 0.44091,6.28853c2.2841,0.39097 3.08777,-0.78388 5.29669,-1.41562c4.40746,-1.26052 8.72576,-1.42029 13.25796,-1.42029h2.64561c0,0 2.5,0 2.5,2.5c0,2.5 -2.5,2.5 -2.5,2.5h-2.64561c-4.07243,0 -7.9118,0.094 -11.87531,1.22532c-3.25856,0.9301 -4.73111,2.83007 -8.59275,1.22999c-4.15143,-1.72016 -3.44044,-4.13764 -3.5275,-7.60091c-0.14894,-5.92543 -0.01152,-11.87455 -0.00067,-17.80357c-0.52789,-0.34902 -0.99143,-0.96198 -0.99143,-2.03849c0,-0.57909 0.13414,-1.02404 0.34027,-1.36593c-0.67125,-0.97598 -1.73113,-1.7601 -2.64181,-3.321c-2.14238,-3.67204 -2.93683,-8.22528 -3.91216,-12.25432c-0.36445,-1.50552 -1.5603,-2.89746 -1.38337,-4.43633c0.18173,-1.58056 1.08292,-3.20756 2.36981,-4.14304c2.51475,-1.82806 5.132,-0.81931 7.78516,-1.10563c1.39538,-0.15058 2.34109,-0.51541 3.40187,-0.83736c0.41796,-0.31418 0.9376,-0.50037 1.50074,-0.50037c0.1644,0 0.32508,0.01587 0.48062,0.04615c0.0676,-0.00961 0.13625,-0.01876 0.20603,-0.02742c4.99872,-0.62065 10.49393,-0.01873 15.5177,-0.01873c0,0 2.5,0 2.5,2.5c0,2.5 -2.5,2.5 -2.5,2.5c-4.81281,0 -10.12087,-0.62196 -14.90679,-0.01873c-1.92084,0.24211 -3.73099,1.10741 -5.65458,1.32661c-1.76306,0.2009 -3.68226,-0.2397 -5.44288,0.21718c-0.03085,0.00801 1.12159,5.26326 1.30754,5.93298c0.67996,2.44896 1.72277,6.06825 3.04217,8.28763c0.15918,0.26775 2.86078,3.7362 3.62997,4.76245c7.65429,0.19005 15.63807,0.81284 22.76868,-1.86917l-0.13009,-0.48198c0,0 1.5,-2 3.5,-0.5z" fill="#f33f3f" stroke-opacity="0.50196" stroke="#000000" stroke-width="1"/></g></g></svg>