<svg version="1.1" xmlns="http://www.w3.org/2000/svg" xmlns:xlink="http://www.w3.org/1999/xlink" width="62.61468" height="40.01511" viewBox="0,0,62.61468,40.01511"><g transform="translate(-203.35896,-155.56059)"><g stroke-miterlimit="10"><path d="M233.06784,168.82199c0,-3.90938 3.16918,-5.13772 7.07856,-5.13772c3.90938,0 7.07856,1.22834 7.07856,5.13772c0,3.90938 -3.16917,11.70672 -7.07856,11.70672c-3.90938,0 -7.07856,-7.79734 -7.07856,-11.70672z" fill="#d14242" stroke="#20c500" stroke-width="0" stroke-linecap="butt"/><path d="M255.82504,177.04929c-0.06737,2.78001 -3.01989,2.91761 -4.6875,1.25c-2.72645,-2.72645 -0.89361,-7.47627 -0.41495,-11.52784c-0.94979,0.46 -1.91532,0.89117 -2.90704,1.27136c-0.80879,0.31006 -4.26574,2.0227 -5.01566,0.71033l-0.48286,-0.845c-0.44009,0.71429 -1.22943,1.19046 -2.12999,1.19046c-0.29634,0 -0.58064,-0.05156 -0.84442,-0.1462c-3.42454,1.01007 -8.55121,0.45231 -13.23208,-0.29219c-0.01776,2.41985 -1.25707,5.23094 -1.33896,7.85304c-0.05423,1.73658 0.92205,6.17124 -2.5,6.17124c-5.05804,0 -1.58508,-9.80093 -1.41662,-12.50676c0.02501,-0.40172 0.01733,-1.42141 0.07925,-2.39706c-1.18593,-0.20111 -2.25855,-0.37098 -3.16187,-0.47361c-3.0925,-0.35136 2.0979,10.30139 -3.26413,10.30139c-4.12936,0 -2.36052,-12.79676 -2.3507,-13.09998c0.0139,-0.42927 0.09941,-0.8771 0.3125,-1.25c1.08639,-1.90118 3.89702,-1.02791 5.63884,-0.9097c4.27471,0.29012 8.57672,1.66272 12.81912,1.74984c3.51045,0.07209 8.78586,-2.7031 10.52789,0.34546c0.40432,0.23862 0.73561,0.58781 0.95229,1.00597c0.45762,-0.5038 0.99294,-0.94904 1.58534,-1.35032c3.27332,-2.21726 8.28939,-3.09201 11.56956,-5.08319c1.10703,-0.67201 3.70003,-2.71006 5.02181,-3.11526c1.56371,-0.47936 4.0107,-0.67206 4.93045,0.9375c1.35002,2.36254 -0.70995,4.89443 -0.73257,7.25019c-0.03861,4.02133 0.09436,8.04414 0,12.06456c-0.0309,1.31651 -0.88852,2.5 -2.5,2.5c-1.61068,0 -2.46951,-1.18349 -2.5,-2.5c-0.09449,-4.07965 -0.01434,-8.16151 0,-12.24223c0.00219,-0.62227 0.80334,-2.09618 0.23077,-1.85249c-1.51899,0.6465 -2.99082,1.40409 -4.45687,2.18513c0.13837,0.22082 0.22444,0.50767 0.25609,0.91088c0.00813,0.08205 0.01229,0.16526 0.01229,0.24944c0.08915,3.88066 0.09404,7.7645 0,11.64504z" fill="#d14242" stroke="none" stroke-width="0.5" stroke-linecap="butt"/><path d="M241.90254,180.40704l8.94965,-1.58024l3.14329,5.31262" fill="none" stroke="#d14242" stroke-width="2.5" stroke-linecap="round"/><path d="M242.23916,188.73236c0.1032,0.57881 1.24393,-0.00941 1.73591,0.3125c1.86394,1.21961 3.36055,0.27953 4.84867,2.94352c0.80228,1.43621 -2.24603,3.4801 -3.26205,3.53553c-3.4655,0.18904 -8.47893,0.10118 -8.47182,-4.60396c0.00518,-3.42918 -0.08808,-6.85951 0,-10.28756c0.00077,-0.02981 0.00127,-0.06044 0.00165,-0.09169c0.04825,-1.33824 1.14833,-2.40831 2.49835,-2.40831c1.38071,0 2.5,1.11929 2.5,2.5c0,0.14926 -0.01308,0.29546 -0.03816,0.43752c0.56942,2.14169 -0.33385,4.73859 0.18745,7.66246z" fill="#d14242" stroke="none" stroke-width="0.5" stroke-linecap="butt"/><path d="M233.11822,186.06266c-0.59384,0.59384 -1.34768,1.25 -2.1875,1.25c-0.30131,0 -2.98562,-1.9263 -4.54012,-3.32362c-0.38252,-0.22261 -0.70059,-0.54382 -0.9194,-0.92881c-1.48298,2.26294 -3.27522,4.21316 -4.88596,3.67625c-3.12231,-1.04077 -0.9232,-5.03047 1.11096,-8.00944c-4.62364,-3.61791 -8.23866,-8.3226 -12.70316,-12.17561c-1.80915,-1.56135 -7.37068,-4.94177 -5.09613,-7.78496c2.33107,-2.91385 5.40083,1.42539 6.76698,2.69171c4.21154,3.90381 8.10615,8.27398 12.38511,12.07568c0.24278,0.21571 0.7717,0.56384 1.39823,0.97758c0.60793,-1.12706 1.58234,-2.65025 2.423,-2.42097c0.20028,-0.05169 0.41027,-0.07919 0.6267,-0.07919c1.38071,0 2.5,1.11929 2.5,2.5c0.46449,0.59993 -1.35462,2.71072 -1.60212,3.20634c-0.06631,0.13279 -0.14596,0.29515 -0.23781,0.48202c0.03173,0.15904 0.04838,0.32353 0.04838,0.49191c0,0.22862 -0.03069,0.45007 -0.08817,0.66047c1.81933,0.36963 7.28628,4.42537 5.00101,6.71065z" fill="#20c500" stroke="none" stroke-width="0.5" stroke-linecap="butt"/><path d="M225.70538,183.61829l3.14329,-5.31262l8.94964,1.58023" fill="none" stroke="#d14242" stroke-width="2.5" stroke-linecap="round"/><path d="M232.90958,170.62959c0,-1.38071 1.11929,-2.5 2.5,-2.5c1.38071,0 2.5,1.11929 2.5,2.5c0,1.38071 -1.11929,2.5 -2.5,2.5c-1.38071,0 -2.5,-1.11929 -2.5,-2.5z" fill="#000000" stroke="none" stroke-width="0.5" stroke-linecap="butt"/><path d="M239.92647,170.48029c0,-1.38071 1.11929,-2.5 2.5,-2.5c1.38071,0 2.5,1.11929 2.5,2.5c0,1.38071 -1.11929,2.5 -2.5,2.5c-1.38071,0 -2.5,-1.11929 -2.5,-2.5z" fill="#000000" stroke="none" stroke-width="0.5" stroke-linecap="butt"/><path d="M245.54978,174.52316c0.88388,0.88388 0,1.76777 0,1.76777l-0.43247,0.41471c-0.71184,0.37702 -1.33009,1.11884 -2.13551,1.13107c-0.47401,0.0072 -0.48832,-0.88834 -0.91981,-1.08469c-0.78632,-0.3578 -1.63408,0.95404 -2.47671,0.76348c-0.76379,-0.17273 -0.96619,-1.92069 -1.69286,-1.62885c-0.29984,0.12042 -0.68301,1.62771 -0.63565,2.05843c0,0 0,1.25 -1.25,1.25c-1.25,0 -1.25,-1.25 -1.25,-1.25c0.06583,-1.2606 0.87874,-4.26805 2.64885,-4.51057c1.07028,-0.14664 1.75543,1.33175 2.786,1.65564c0.85852,0.26982 1.7214,-0.92715 2.59934,-0.72948c0.37636,0.08474 0.21714,0.85683 0.57314,1.00545c0.21758,0.09083 0.16881,-0.44032 0.25321,-0.66047l0.16471,-0.18247c0,0 0.88388,-0.88388 1.76777,0z" fill="#000000" stroke="none" stroke-width="0.5" stroke-linecap="butt"/></g></g></svg>