<svg version="1.1" xmlns="http://www.w3.org/2000/svg" xmlns:xlink="http://www.w3.org/1999/xlink" width="536.03604" height="36.03604" viewBox="0,0,536.03604,36.03604"><defs><radialGradient cx="245.56527" cy="127.94964" r="268.01802" gradientUnits="userSpaceOnUse" id="color-1"><stop offset="0" stop-color="#000000"/><stop offset="1" stop-color="#000000" stop-opacity="0"/></radialGradient></defs><g transform="translate(22.45276,-109.93162)"><g stroke="none" stroke-miterlimit="10"><path d="M-22.45275,145.96766v-36.03604h536.03604v36.03604z" fill="url(#color-1)" stroke-width="0"/><text transform="translate(211.50996,131.64658) scale(0.30627,0.30627)" font-size="40" xml:space="preserve" fill="#ffffff" stroke-width="1" font-family="Malgun Gothic" font-weight="normal" text-anchor="start"><tspan x="0" dy="0">ジャンプ!</tspan></text><g><path d="M273.05749,123.79131h17.83738v9.55346l-0.195,0.40315c-0.47484,0.71946 -1.60874,2.68636 -1.98233,2.9287c-0.21271,0.13798 -3.2728,-0.18876 -3.55611,-0.18876c-2.76041,0 -5.52128,-0.01493 -8.28164,0c-1.16562,0.0063 -2.23878,0.05057 -2.55509,-1.22738c0,0 -0.31623,-0.94868 -1.26491,-0.63246c-0.00077,0.00026 -0.00153,0.00051 -0.0023,0.00077z" fill="#ffffff" stroke-width="0"/><text transform="translate(278.4724,134.38226) scale(0.27224,0.27224)" font-size="40" xml:space="preserve" fill="#40409e" stroke-width="1" font-family="Malgun Gothic" font-weight="normal" text-anchor="start"><tspan x="0" dy="0">D</tspan></text></g><g><path d="M297.16896,124.01344h17.83738v9.55346l-0.195,0.40315c-0.47484,0.71946 -1.60874,2.68636 -1.98233,2.9287c-0.21271,0.13798 -3.2728,-0.18876 -3.55611,-0.18876c-2.76041,0 -5.52128,-0.01493 -8.28164,0c-1.16562,0.0063 -2.23878,0.05057 -2.55509,-1.22738c0,0 -0.31623,-0.94868 -1.26491,-0.63246c-0.00077,0.00026 -0.00153,0.00051 -0.0023,0.00077z" fill="#ffffff" stroke-width="0"/><text transform="translate(302.58387,134.60439) scale(0.27224,0.27224)" font-size="40" xml:space="preserve" fill="#40409e" stroke-width="1" font-family="Malgun Gothic" font-weight="normal" text-anchor="start"><tspan x="0" dy="0">W</tspan></text></g></g></g></svg>