<svg version="1.1" xmlns="http://www.w3.org/2000/svg" xmlns:xlink="http://www.w3.org/1999/xlink" width="17.78245" height="31.29269" viewBox="0,0,17.78245,31.29269"><g transform="translate(-231.50287,-167.52828)"><g stroke-miterlimit="10"><path d="M232.76923,174.60684c0,-3.90938 3.16918,-7.07856 7.07856,-7.07856c3.90938,0 7.07856,3.16918 7.07856,7.07856c0,3.90938 -3.16917,7.07856 -7.07856,7.07856c-3.90938,0 -7.07856,-3.16918 -7.07856,-7.07856z" fill="#20c500" stroke="none" stroke-width="0" stroke-linecap="butt"/><path d="M241.7386,197.57097l-2.85542,-6.12647l1.65292,-13.90282" fill="none" stroke="#20c500" stroke-width="2.5" stroke-linecap="round"/><path d="M240.56292,181.12167c0,0 4.57525,2.70307 5.91279,3.63947c0.68694,0.48092 1.55961,1.59187 1.55961,1.59187" fill="none" stroke="#20c500" stroke-width="2.5" stroke-linecap="round"/><path d="M232.75287,197.21565l6.37279,-7.59786" fill="none" stroke="#20c500" stroke-width="2.5" stroke-linecap="round"/><path d="M239.61555,182.30725c0,0 3.47582,1.5317 4.58511,2.51113c0.85014,0.75062 0.25251,3.48881 0.25251,3.48881" fill="none" stroke="#20c500" stroke-width="2.5" stroke-linecap="round"/></g></g></svg>