<svg version="1.1" xmlns="http://www.w3.org/2000/svg" xmlns:xlink="http://www.w3.org/1999/xlink" width="15.1607" height="30.59118" viewBox="0,0,15.1607,30.59118"><g transform="translate(-232.76923,-165.77441)"><g stroke-miterlimit="10"><path d="M232.76923,172.85297c0,-3.90938 3.16918,-7.07856 7.07856,-7.07856c3.90938,0 7.07856,3.16918 7.07856,7.07856c0,3.90938 -3.16917,7.07856 -7.07856,7.07856c-3.90938,0 -7.07856,-3.16918 -7.07856,-7.07856z" fill="#20c500" stroke="none" stroke-width="0" stroke-linecap="butt"/><path d="M240.5361,175.78784l-1.65292,13.90282l-1.47072,5.42493" fill="none" stroke="#20c500" stroke-width="2.5" stroke-linecap="round"/><path d="M240.56293,179.3678c0,0 4.06359,1.38432 5.18481,2.0395c0.65523,0.38287 0.93219,1.53493 0.93219,1.53493" fill="none" stroke="#20c500" stroke-width="2.5" stroke-linecap="round"/><path d="M239.12566,187.86395c0,0 5.32844,2.56119 5.67312,3.81584c0.25244,0.9189 -4.67978,3.31433 -4.67978,3.31433" fill="none" stroke="#20c500" stroke-width="2.5" stroke-linecap="round"/><path d="M239.61555,180.55338c0,0 4.35761,2.97457 5.55035,4.01979c0.60774,0.53258 1.12612,1.83092 1.12612,1.83092" fill="none" stroke="#20c500" stroke-width="2.5" stroke-linecap="round"/></g></g></svg>