<svg version="1.1" xmlns="http://www.w3.org/2000/svg" xmlns:xlink="http://www.w3.org/1999/xlink" width="536.03604" height="36.03604" viewBox="0,0,536.03604,36.03604"><defs><radialGradient cx="245.56528" cy="127.94964" r="268.01802" gradientUnits="userSpaceOnUse" id="color-1"><stop offset="0" stop-color="#000000"/><stop offset="1" stop-color="#000000" stop-opacity="0"/></radialGradient></defs><g transform="translate(22.45275,-109.93162)"><g stroke="none" stroke-miterlimit="10"><path d="M-22.45275,145.96766v-36.03604h536.03604v36.03604z" fill="url(#color-1)" stroke-width="0"/><text transform="translate(126.6514,131.27526) scale(0.30627,0.30627)" font-size="40" xml:space="preserve" fill="#ffffff" stroke-width="1" font-family="Malgun Gothic" font-weight="normal" text-anchor="start"><tspan x="0" dy="0">It's an enemy! Click to defeat it!</tspan></text><g fill="#ffffff" stroke-width="0"><path d="M319.45116,139.48213c-5.10157,0 -9.23721,-6.13216 -9.23721,-13.69656c0,-0.06933 0.00035,-0.13825 0.00104,-0.20675c1.78912,0.55313 3.49922,0.29156 5.61022,0.56221c3.60994,0.46282 7.28652,0.32602 10.95202,0.32602c0.67105,0 1.30241,0.0465 1.89774,0.06277c-0.26068,7.21831 -4.29064,12.95231 -9.22381,12.95231z"/><path d="M328.65442,124.63093c-1.38446,0.04403 -3.06526,-0.16389 -3.78833,-0.16389c-1.38707,0 -2.76347,0.00981 -4.13401,-0.01618c-0.16387,-2.91694 -0.3298,-5.87046 -0.49644,-8.83661c4.47139,0.24937 8.03647,2.70248 8.41878,9.01667z"/><path d="M316.06958,124.01275c-2.12297,-0.25919 -3.87856,0.19856 -5.71756,-0.63119c0.6891,-5.30745 3.88255,-7.52178 7.88222,-7.87926c0.1636,2.91206 0.3272,5.82412 0.4908,8.73618c-0.88618,-0.04664 -1.7709,-0.11773 -2.65545,-0.22573z"/></g></g></g></svg>