<svg version="1.1" xmlns="http://www.w3.org/2000/svg" xmlns:xlink="http://www.w3.org/1999/xlink" width="15.39779" height="30.59118" viewBox="0,0,15.39779,30.59118"><g transform="translate(-232.76923,-165.77441)"><g stroke="#20c500" stroke-miterlimit="10"><path d="M232.76923,172.85297c0,-3.90938 3.16918,-7.07856 7.07856,-7.07856c3.90938,0 7.07856,3.16918 7.07856,7.07856c0,3.90938 -3.16917,7.07856 -7.07856,7.07856c-3.90938,0 -7.07856,-3.16918 -7.07856,-7.07856z" fill="#20c500" stroke-width="0" stroke-linecap="butt"/><path d="M240.5361,175.78784l-1.65292,13.90282l-1.47072,5.42493" fill="none" stroke-width="2.5" stroke-linecap="round"/><path d="M240.56293,179.3678c0,0 3.16786,1.27807 4.29637,1.93751c0.77072,0.45037 1.82063,1.63692 1.82063,1.63692" fill="none" stroke-width="2.5" stroke-linecap="round"/><path d="M239.12566,187.86395c0,0 5.32844,2.56119 5.67312,3.81584c0.25244,0.9189 -4.67978,3.31433 -4.67978,3.31433" fill="none" stroke-width="2.5" stroke-linecap="round"/><path d="M239.61555,180.55338c0,0 5.46158,2.77545 6.68983,3.86479c0.52051,0.46165 0.61164,2.61092 0.61164,2.61092" fill="none" stroke-width="2.5" stroke-linecap="round"/></g></g></svg>