<svg version="1.1" xmlns="http://www.w3.org/2000/svg" xmlns:xlink="http://www.w3.org/1999/xlink" width="205.18191" height="152.10172" viewBox="0,0,205.18191,152.10172"><g transform="translate(-137.40904,-109.61433)"><g stroke-miterlimit="10"><path d="M264.87222,260.23041c-11.82916,3.94571 -29.4383,-0.04568 -36.28735,-11.04939c-0.52529,-0.84393 -2.42496,-4.23993 -2.88982,-5.65948c-0.37527,-1.14597 0.3376,-2.89787 -0.67398,-3.5542c-0.24942,-0.16183 -0.95538,1.26916 -1.00574,1.32824c-1.15309,1.35246 -2.49556,2.53885 -3.85683,3.68152c-4.50442,3.78107 -9.86069,5.80705 -15.66782,6.6009c-12.08881,1.65258 -20.45945,-2.50102 -26.45419,-12.10595c-0.15663,-0.25096 -3.69056,1.94955 -4.10582,2.12344c-2.77279,1.16112 -5.57166,2.27903 -8.44223,3.17145c-3.61437,1.12366 -7.62283,0.18435 -11.34356,-0.51025c-0.93827,-0.17516 -1.42312,-1.32651 -2.29773,-1.70871c-0.87461,-0.38221 -2.0489,0.04409 -2.81481,-0.52548c-6.53516,-4.85988 -10.54327,-23.62974 -11.56505,-31.8c-0.23607,-1.88762 0.33636,-3.81628 0.11599,-5.7058c-0.59746,-5.12277 0.62504,-9.99739 2.08594,-14.87904c0.93078,-3.11024 1.88767,-6.49332 3.0582,-9.76828c0.09323,-1.00417 0.27203,-1.96815 0.50796,-2.90468c0.59236,-3.28293 1.67823,-6.26627 3.15367,-8.75123c1.42449,-4.16036 5.43355,-7.80693 7.50612,-11.52979c5.00815,-8.99592 9.44038,-18.10919 15.43862,-25.83038c3.39309,-4.36772 7.29433,-8.76182 12.07085,-8.78976c4.28414,-0.02507 8.84269,1.98751 12.40198,5.97753c0.76016,0.85215 3.20112,7.10259 3.61713,7.06121c0.75513,-0.07513 3.56111,-3.502 5.01022,-4.63528c2.19895,-1.71969 5.36169,-4.41392 8.70743,-7.12666c4.73896,-3.84237 9.84506,-7.72188 13.09954,-8.9218c2.90709,-1.07184 8.86967,-1.12154 11.72775,1.35212c2.14175,1.85368 4.11316,4.12892 6.15551,6.22517c0.64219,0.65913 -1.34627,2.28769 1.01225,2.76276c0.42712,0.08603 6.83708,-5.76342 7.18881,-6.01809c5.84513,-4.23234 16.95713,-3.71188 21.24961,5.25311c1.89108,3.94958 3.03961,8.61159 3.88141,13.20883c0.05723,0.31254 0.00782,1.64259 -0.0964,3.36496c4.14515,-5.9036 9.57748,-16.26879 16.2944,-15.09509c2.41621,0.4222 4.83489,0.92596 7.22697,1.68665c2.88036,0.91596 4.80601,5.33637 6.94878,8.43549c0.68913,0.9967 1.14429,2.24305 1.5139,3.56941c1.41796,-5.2418 4.35339,-17.42001 5.49789,-19.8919l-0.00008,-0.00004c1.32122,-2.85356 2.82971,-5.86422 4.98141,-7.2895c8.46205,-5.60522 18.47438,-1.08351 22.96315,11.69518c0.90429,2.57432 1.04816,5.52885 1.50573,8.31225c1.30391,7.93165 -1.96172,16.20196 -3.94413,22.90651c-4.35518,14.72936 -9.70418,28.16608 -15.09905,41.96455c0.08035,4.8251 -1.76424,8.96249 -5.07761,14.02206c-2.95142,8.59464 -7.83756,30.39553 -11.07519,35.64765c-1.00385,2.31542 -2.29949,4.33231 -3.82748,5.93699c-0.65575,0.81001 -1.35915,1.51988 -2.137,2.06278c-0.63007,0.43976 -1.30186,0.7303 -1.99074,0.95973c-1.01953,0.47257 -2.09415,0.79447 -3.21417,0.94711c-1.27156,0.46585 -1.71485,1.14693 -2.89298,0.0078c-3.84744,-0.50201 -7.44016,-3.02061 -10.20251,-6.88351c-5.73271,4.46074 -11.77108,8.60492 -17.95895,10.66893z" fill="#993ff2" stroke="none" stroke-width="0.5" stroke-linecap="butt"/><path d="M143.75522,226.24027c-0.24337,-0.43265 -0.42575,-0.89145 -0.5692,-1.36598c-0.43956,-1.12638 -0.6808,-2.35203 -0.6808,-3.63402c-1.25701,-7.18627 2.56978,-17.23305 4.23512,-24.28664c2.23719,-9.47574 5.09586,-18.82346 7.92037,-28.33178c0.958,-3.22497 2.18923,-9.58717 4.83621,-12.0516c3.44782,-3.21004 7.20596,-6.45504 10.22002,-9.9982c3.53612,-4.15687 9.47782,-9.04157 15.31517,-9.04157c4.9046,0 4.5471,1.22719 7.01859,3.69867c0.64783,0.64783 1.87896,0.60081 2.38636,1.36364c4.52447,6.80199 -4.85526,20.97807 -6.94539,27.19362c-0.76392,2.27173 -1.82916,5.99721 -1.92102,8.51569c-0.11392,3.12326 -0.38636,10.9128 0.30637,15.55852c0.27991,1.8772 0.79392,6.4427 3.43228,6.7525c0.67634,0.07942 1.43582,0.52764 2.03308,0.20051c2.04219,-1.11857 1.50559,-4.40684 2.25808,-6.61037c1.21881,-3.56908 2.23625,-7.50629 3.90056,-10.8507c2.17568,-4.37202 4.06941,-9.62446 6.75604,-13.65085c2.78282,-4.17055 6.68294,-7.99073 9.28008,-12.24306c2.07958,-3.40493 2.32807,-7.45561 4.29507,-10.96164c3.18413,-5.67546 8.83116,-10.64671 13.69923,-14.9132c3.91648,-3.43249 6.84155,-2.29714 10.85942,-0.14684c4.32443,2.31437 5.29742,2.78524 5.90155,7.65803c0.76672,6.18428 -4.0269,18.36412 -5.89724,23.74406c-0.50397,1.44966 -2.82663,7.25297 -2.81022,8.04768c0.00088,0.0424 1.57979,-2.93821 2.18943,-3.85209c0.51316,-0.76926 4.09343,-6.50718 6.20305,-8.86482c6.05496,-6.7668 16.64553,-21.65421 24.89173,-25.5603c0.55839,-0.2645 -1.16263,11.06434 1.33577,11.86629c1.83299,0.58837 8.07125,-9.33973 8.38695,-9.21464c2.75418,1.09128 3.40993,7.75204 3.29905,10.73412c-0.47544,12.78573 -9.4922,23.76069 -9.67721,36.40923c-0.07435,5.08301 -0.49342,10.19112 0,15.25067c0.11773,1.20716 0.738,-2.31141 1.15065,-3.45195c0.41783,-1.15483 1.04671,-2.59137 1.50935,-3.60951c1.89508,-4.1705 3.23923,-8.3713 5.82541,-12.27398c2.35484,-3.55359 4.73221,-7.0922 7.09395,-10.6412c4.13152,-6.20847 6.2928,-13.06767 10.61025,-19.18114c1.10882,-1.57008 3.58902,-5.99977 5.56503,-6.4573c9.22601,-2.13622 12.38932,-1.96323 15.65248,7.82624c2.01771,6.05313 -6.68107,9.45814 -7.34612,14.82687c-0.8411,6.78988 -2.8645,13.00935 -4.31162,19.71329c-1.35421,6.27355 -2.02045,12.91082 -3.17427,19.20605c-0.51022,2.78379 0.80616,8.22926 -1.45259,10.48801c-2.37537,2.37537 -5.39298,4.87706 -8.75,5c-2.95264,0.10813 -4.82851,-3.68537 -7.69597,-4.3977c-0.0466,-0.01158 -1.30753,2.79462 -1.6723,3.40836c-1.4527,2.44429 -3.03053,4.82778 -4.24663,7.39799c-1.81914,3.84471 -3.48363,8.20791 -4.69811,12.2873c-0.41475,1.39313 -1.45553,4.93936 -2.73687,5.79359c-1.03804,0.69203 -2.46949,0.49202 -3.60293,1.01332c-1.91851,0.88239 -4.03708,2.1733 -6.0985,1.7152c-2.66086,-0.5913 -4.77551,-2.61678 -6.76921,-4.51591c-1.23817,-1.17944 -1.24292,-4.13569 -1.61475,-5.99483c-1.39395,-6.96973 -2.65689,-15.17312 -2.8326,-22.25611c-0.082,-3.30545 -0.39032,-6.8559 -0.40466,-10.11641c-0.03114,-7.08202 1.12756,-14.25451 0,-21.24625c-0.2979,-1.84719 -1.90442,3.23468 -2.62634,4.96086c-0.83605,1.99909 -1.59317,5.46078 -2.70878,7.80852c-4.72071,9.93444 -13.00174,33.26324 -25.93985,34.25848c-2.4344,0.18726 -3.3644,-1.89902 -5.10502,-2.91716c-1.20791,-0.70654 -2.60211,-1.14975 -3.64498,-2.08284c-0.50501,-0.45185 -1.24538,-4.7973 -1.25,-5c-0.19276,-8.45726 0.44332,-16.93054 0,-25.37838c-0.02296,-0.43744 -0.88826,2.7285 -1.27419,3.80091c-1.07046,2.97453 -2.08046,5.97048 -3.11371,8.95814c-2.80291,8.1047 -6.3008,13.86315 -14.74737,15.74017c-2.75695,0.61266 -6.47396,-0.58309 -8.8679,-2.01038c-1.57646,-0.9399 -7.48886,-0.36247 -10.84208,-3.71569c-2.29654,-2.29654 -4.91561,-5.15139 -6.47704,-8.02322c-1.53986,-2.83214 -1.53822,-6.49229 -3.02466,-9.17368c-0.36123,-0.65163 -0.21975,1.47568 -0.39236,2.20047c-0.31723,1.33203 -0.79023,2.62501 -1.08085,3.9631c-1.02204,4.70581 -1.95101,9.72611 -2.61336,14.46618c-0.01473,0.10544 -0.0269,0.2154 -0.03701,0.32923c0.02451,0.28555 0.03701,0.57453 0.03701,0.86643c0,0.51188 -0.03846,1.01478 -0.11265,1.50596c-0.72626,4.80835 -4.87638,8.49404 -9.88735,8.49404c-3.25429,0 -6.14551,-1.55449 -7.97162,-3.96144c-0.29804,-0.30786 -0.56044,-0.65113 -0.77838,-1.03856z" fill-opacity="0.07843" fill="#000000" stroke="none" stroke-width="0.5" stroke-linecap="butt"/><path d="M168.25394,177.01592v-28.25046h16.10977l-9.57247,14.00849l9.57247,14.24197z" fill="none" stroke="#ffffff" stroke-width="5" stroke-linecap="butt"/><path d="M213.37198,161.73856c0,-8.59097 6.96436,-15.55533 15.55533,-15.55533c8.59097,0 15.55533,6.96436 15.55533,15.55533c0,8.59097 -6.96436,15.55532 -15.55533,15.55532c-8.59097,0 -15.55533,-6.96435 -15.55533,-15.55532z" fill="none" stroke="#ffffff" stroke-width="5" stroke-linecap="butt"/><path d="M277.99205,171.84432c-2.85338,3.37309 -7.11724,5.51477 -11.88131,5.51477c-8.59097,0 -15.55533,-6.96435 -15.55533,-15.55532c0,-8.59097 6.96436,-15.55532 15.55533,-15.55532c4.80312,0 9.09779,2.17692 11.95119,5.59794" fill="none" stroke="#ffffff" stroke-width="5" stroke-linecap="butt"/><path d="M213.95235,177.34511h-19.37743v-30.79992" fill="none" stroke="#ffffff" stroke-width="5" stroke-linecap="butt"/><path d="M192.82887,214.41231c-2.85338,3.37309 -7.11724,5.51477 -11.88131,5.51477c-8.59097,0 -15.55533,-6.96435 -15.55533,-15.55532c0,-8.59097 6.96436,-15.55532 15.55533,-15.55532c4.80312,0 9.09779,2.17692 11.95119,5.59794" fill="none" stroke="#000000" stroke-width="5" stroke-linecap="butt"/><path d="M197.3339,204.30655c0,-8.59097 6.96436,-15.55533 15.55533,-15.55533c8.59097,0 15.55533,6.96436 15.55533,15.55533c0,8.59097 -6.96436,15.55532 -15.55533,15.55532c-8.59097,0 -15.55533,-6.96435 -15.55533,-15.55532z" fill="none" stroke="#000000" stroke-width="5" stroke-linecap="butt"/><path d="M237.69411,219.35876h0.06414v-28.05076h21.03808l-9.51722,9.51722l17.78218,17.78218h-0.10273" fill="none" stroke="#000000" stroke-width="5" stroke-linecap="round"/><g fill="none" stroke="#000000" stroke-width="5" stroke-linecap="butt"><path d="M298.1753,219.34486h-21.92717v-27.71925h21.92717"/><path d="M276.2835,204.90001h21.92717"/></g><g fill="none" stroke="#ffffff" stroke-width="5" stroke-linecap="butt"><path d="M301.914,176.80244h6.17609l-15.34042,-14.24197l15.48462,-14.00849h-4.58324"/><path d="M286.21236,179.10963v-32.80135"/></g><text transform="translate(230.09808,232.99045) scale(0.25493,0.25493)" font-size="40" xml:space="preserve" fill="#ffffff" stroke="none" stroke-width="1" stroke-linecap="butt" font-family="Malgun Gothic" font-weight="normal" text-anchor="start"><tspan x="0" dy="0">FREE MISSION</tspan></text></g></g></svg>